solid OpenSCAD_Model
  facet normal -1 0 0
    outer loop
      vertex -4.5 -6 0
      vertex -4.5 -6 8
      vertex -4.5 6 0
    endloop
  endfacet
  facet normal -1 0 0
    outer loop
      vertex -4.5 6 0
      vertex -4.5 -6 8
      vertex -4.5 6 8
    endloop
  endfacet
  facet normal -0.994522 -0.104529 0
    outer loop
      vertex -4.5 -6 0
      vertex -4.40166 -6.9356 0
      vertex -4.5 -6 8
    endloop
  endfacet
  facet normal -0.994522 -0.104529 0
    outer loop
      vertex -4.5 -6 8
      vertex -4.40166 -6.9356 0
      vertex -4.40166 -6.9356 8
    endloop
  endfacet
  facet normal 0 0 -1
    outer loop
      vertex -4.5 -6 0
      vertex -4.5 6 0
      vertex -4.40166 -6.9356 0
    endloop
  endfacet
  facet normal 0 0 -1
    outer loop
      vertex -4.5 6 0
      vertex -4.40166 6.9356 0
      vertex -4.40166 -6.9356 0
    endloop
  endfacet
  facet normal 0 0 -1
    outer loop
      vertex -4.40166 -6.9356 0
      vertex -4.40166 6.9356 0
      vertex -4.11095 7.83031 0
    endloop
  endfacet
  facet normal 0 0 -1
    outer loop
      vertex -4.40166 -6.9356 0
      vertex -4.11095 7.83031 0
      vertex -3.64058 8.64503 0
    endloop
  endfacet
  facet normal 0 0 -1
    outer loop
      vertex -4.40166 -6.9356 0
      vertex -3.64058 8.64503 0
      vertex -3.01109 9.34415 0
    endloop
  endfacet
  facet normal 0 0 -1
    outer loop
      vertex -4.40166 -6.9356 0
      vertex -3.01109 9.34415 0
      vertex -2.25 9.89711 0
    endloop
  endfacet
  facet normal 0 0 -1
    outer loop
      vertex -4.40166 -6.9356 0
      vertex -2.25 9.89711 0
      vertex -1.39058 10.2798 0
    endloop
  endfacet
  facet normal 0 0 -1
    outer loop
      vertex -1.37032 6.6101 0
      vertex -1.39058 10.2798 0
      vertex -0.470378 10.4753 0
    endloop
  endfacet
  facet normal 0 0 -1
    outer loop
      vertex -1.0037 7.11472 0
      vertex -0.470378 10.4753 0
      vertex 0.470378 10.4753 0
    endloop
  endfacet
  facet normal 0 0 -1
    outer loop
      vertex -0.156793 7.49178 0
      vertex 0.470378 10.4753 0
      vertex 1.39058 10.2798 0
    endloop
  endfacet
  facet normal 0 0 -1
    outer loop
      vertex 0.75 7.29904 0
      vertex 1.39058 10.2798 0
      vertex 2.25 9.89711 0
    endloop
  endfacet
  facet normal 0 0 -1
    outer loop
      vertex 1.37032 6.6101 0
      vertex 2.25 9.89711 0
      vertex 3.01109 9.34415 0
    endloop
  endfacet
  facet normal 0 0 -1
    outer loop
      vertex 1.46722 5.68813 0
      vertex 3.01109 9.34415 0
      vertex 3.64058 8.64503 0
    endloop
  endfacet
  facet normal 0 0 -1
    outer loop
      vertex -4.40166 -6.9356 0
      vertex 3.64058 8.64503 0
      vertex 4.11095 7.83031 0
    endloop
  endfacet
  facet normal 0 0 -1
    outer loop
      vertex -4.40166 -6.9356 0
      vertex 4.11095 7.83031 0
      vertex 4.40166 6.9356 0
    endloop
  endfacet
  facet normal 0 0 -1
    outer loop
      vertex -4.40166 -6.9356 0
      vertex 4.40166 6.9356 0
      vertex 4.5 6 0
    endloop
  endfacet
  facet normal 0 0 -1
    outer loop
      vertex -4.40166 -6.9356 0
      vertex 4.5 6 0
      vertex 4.5 -6 0
    endloop
  endfacet
  facet normal 0 0 -1
    outer loop
      vertex -4.40166 -6.9356 0
      vertex 4.5 -6 0
      vertex 4.40166 -6.9356 0
    endloop
  endfacet
  facet normal 0 0 -1
    outer loop
      vertex -4.40166 -6.9356 0
      vertex 4.40166 -6.9356 0
      vertex 4.11095 -7.83031 0
    endloop
  endfacet
  facet normal 0 0 -1
    outer loop
      vertex -4.40166 -6.9356 0
      vertex 4.11095 -7.83031 0
      vertex 3.64058 -8.64503 0
    endloop
  endfacet
  facet normal 0 0 -1
    outer loop
      vertex -4.40166 -6.9356 0
      vertex 3.64058 -8.64503 0
      vertex 3.01109 -9.34415 0
    endloop
  endfacet
  facet normal 0 0 -1
    outer loop
      vertex -4.40166 -6.9356 0
      vertex 3.01109 -9.34415 0
      vertex 2.25 -9.89711 0
    endloop
  endfacet
  facet normal 0 0 -1
    outer loop
      vertex -4.40166 -6.9356 0
      vertex 2.25 -9.89711 0
      vertex 1.39058 -10.2798 0
    endloop
  endfacet
  facet normal 0 0 -1
    outer loop
      vertex -4.40166 -6.9356 0
      vertex 1.39058 -10.2798 0
      vertex 0.470378 -10.4753 0
    endloop
  endfacet
  facet normal 0 0 -1
    outer loop
      vertex -4.40166 -6.9356 0
      vertex 0.470378 -10.4753 0
      vertex -0.470378 -10.4753 0
    endloop
  endfacet
  facet normal 0 0 -1
    outer loop
      vertex -4.40166 -6.9356 0
      vertex -0.470378 -10.4753 0
      vertex -1.39058 -10.2798 0
    endloop
  endfacet
  facet normal 0 0 -1
    outer loop
      vertex -4.40166 -6.9356 0
      vertex -1.39058 -10.2798 0
      vertex -2.25 -9.89711 0
    endloop
  endfacet
  facet normal 0 0 -1
    outer loop
      vertex -4.40166 -6.9356 0
      vertex -2.25 -9.89711 0
      vertex -3.01109 -9.34415 0
    endloop
  endfacet
  facet normal 0 0 -1
    outer loop
      vertex -4.40166 -6.9356 0
      vertex -3.01109 -9.34415 0
      vertex -3.64058 -8.64503 0
    endloop
  endfacet
  facet normal 0 0 -1
    outer loop
      vertex -4.40166 -6.9356 0
      vertex -3.64058 -8.64503 0
      vertex -4.11095 -7.83031 0
    endloop
  endfacet
  facet normal 0 0 -1
    outer loop
      vertex -4.40166 -6.9356 0
      vertex -1.39058 10.2798 0
      vertex -1.5 6 0
    endloop
  endfacet
  facet normal 0 0 -1
    outer loop
      vertex -0.75 7.29904 0
      vertex 0.470378 10.4753 0
      vertex -0.463525 7.42658 0
    endloop
  endfacet
  facet normal 0 0 -1
    outer loop
      vertex -1.0037 4.88528 0
      vertex -4.40166 -6.9356 0
      vertex -1.21352 5.11832 0
    endloop
  endfacet
  facet normal 0 0 -1
    outer loop
      vertex -4.40166 -6.9356 0
      vertex -1.46722 5.68813 0
      vertex -1.37032 5.3899 0
    endloop
  endfacet
  facet normal 0 0 -1
    outer loop
      vertex -4.40166 -6.9356 0
      vertex -1.37032 5.3899 0
      vertex -1.21352 5.11832 0
    endloop
  endfacet
  facet normal 0 0 -1
    outer loop
      vertex -0.463525 4.57341 0
      vertex -4.40166 -6.9356 0
      vertex -0.75 4.70096 0
    endloop
  endfacet
  facet normal 0 0 -1
    outer loop
      vertex -4.40166 -6.9356 0
      vertex -1.0037 4.88528 0
      vertex -0.75 4.70096 0
    endloop
  endfacet
  facet normal 0 0 -1
    outer loop
      vertex 0.156793 7.49178 0
      vertex 1.39058 10.2798 0
      vertex 0.463525 7.42658 0
    endloop
  endfacet
  facet normal 0 0 -1
    outer loop
      vertex -4.40166 -6.9356 0
      vertex -0.463525 4.57341 0
      vertex -0.156793 4.50822 0
    endloop
  endfacet
  facet normal 0 0 -1
    outer loop
      vertex 1.0037 4.88528 0
      vertex -4.40166 -6.9356 0
      vertex 0.75 4.70096 0
    endloop
  endfacet
  facet normal 0 0 -1
    outer loop
      vertex -4.40166 -6.9356 0
      vertex 0.156793 4.50822 0
      vertex 0.463525 4.57341 0
    endloop
  endfacet
  facet normal 0 0 -1
    outer loop
      vertex -4.40166 -6.9356 0
      vertex 0.463525 4.57341 0
      vertex 0.75 4.70096 0
    endloop
  endfacet
  facet normal 0 0 -1
    outer loop
      vertex 1.46722 6.31187 0
      vertex 3.01109 9.34415 0
      vertex 1.5 6 0
    endloop
  endfacet
  facet normal 0 0 -1
    outer loop
      vertex -4.40166 -6.9356 0
      vertex 1.0037 4.88528 0
      vertex 1.21352 5.11832 0
    endloop
  endfacet
  facet normal 0 0 -1
    outer loop
      vertex -4.40166 -6.9356 0
      vertex 1.21352 5.11832 0
      vertex 3.64058 8.64503 0
    endloop
  endfacet
  facet normal 0 0 -1
    outer loop
      vertex 1.21352 5.11832 0
      vertex 1.37032 5.38989 0
      vertex 3.64058 8.64503 0
    endloop
  endfacet
  facet normal 0 0 -1
    outer loop
      vertex 1.5 6 0
      vertex 3.01109 9.34415 0
      vertex 1.46722 5.68813 0
    endloop
  endfacet
  facet normal 0 0 -1
    outer loop
      vertex 1.46722 5.68813 0
      vertex 3.64058 8.64503 0
      vertex 1.37032 5.38989 0
    endloop
  endfacet
  facet normal 0 0 -1
    outer loop
      vertex 1.37032 6.6101 0
      vertex 3.01109 9.34415 0
      vertex 1.46722 6.31187 0
    endloop
  endfacet
  facet normal 0 0 -1
    outer loop
      vertex 1.21352 6.88168 0
      vertex 2.25 9.89711 0
      vertex 1.37032 6.6101 0
    endloop
  endfacet
  facet normal 0 0 -1
    outer loop
      vertex 1.0037 7.11472 0
      vertex 2.25 9.89711 0
      vertex 1.21352 6.88168 0
    endloop
  endfacet
  facet normal 0 0 -1
    outer loop
      vertex 0.75 7.29904 0
      vertex 2.25 9.89711 0
      vertex 1.0037 7.11472 0
    endloop
  endfacet
  facet normal 0 0 -1
    outer loop
      vertex 0.463525 7.42658 0
      vertex 1.39058 10.2798 0
      vertex 0.75 7.29904 0
    endloop
  endfacet
  facet normal 0 0 -1
    outer loop
      vertex 0.156793 4.50822 0
      vertex -4.40166 -6.9356 0
      vertex -0.156793 4.50822 0
    endloop
  endfacet
  facet normal 0 0 -1
    outer loop
      vertex -0.156793 7.49178 0
      vertex 1.39058 10.2798 0
      vertex 0.156793 7.49178 0
    endloop
  endfacet
  facet normal 0 0 -1
    outer loop
      vertex -0.463525 7.42658 0
      vertex 0.470378 10.4753 0
      vertex -0.156793 7.49178 0
    endloop
  endfacet
  facet normal 0 0 -1
    outer loop
      vertex -1.0037 7.11472 0
      vertex 0.470378 10.4753 0
      vertex -0.75 7.29904 0
    endloop
  endfacet
  facet normal 0 0 -1
    outer loop
      vertex -1.21352 6.88168 0
      vertex -0.470378 10.4753 0
      vertex -1.0037 7.11472 0
    endloop
  endfacet
  facet normal 0 0 -1
    outer loop
      vertex -1.37032 6.6101 0
      vertex -0.470378 10.4753 0
      vertex -1.21352 6.88168 0
    endloop
  endfacet
  facet normal 0 0 -1
    outer loop
      vertex -1.46722 6.31187 0
      vertex -1.39058 10.2798 0
      vertex -1.37032 6.6101 0
    endloop
  endfacet
  facet normal 0 0 -1
    outer loop
      vertex -1.5 6 0
      vertex -1.39058 10.2798 0
      vertex -1.46722 6.31187 0
    endloop
  endfacet
  facet normal 0 0 -1
    outer loop
      vertex -1.46722 5.68813 0
      vertex -4.40166 -6.9356 0
      vertex -1.5 6 0
    endloop
  endfacet
  facet normal 0 0 1
    outer loop
      vertex -4.5 6 8
      vertex -4.5 -6 8
      vertex -4.40166 -6.9356 8
    endloop
  endfacet
  facet normal 0 0 1
    outer loop
      vertex -3.64058 -8.64503 8
      vertex -4.5 6 8
      vertex -4.11095 -7.83031 8
    endloop
  endfacet
  facet normal 0 0 1
    outer loop
      vertex -4.11095 -7.83031 8
      vertex -4.5 6 8
      vertex -4.40166 -6.9356 8
    endloop
  endfacet
  facet normal 0 0 1
    outer loop
      vertex -3.01109 -9.34415 8
      vertex -4.5 6 8
      vertex -3.64058 -8.64503 8
    endloop
  endfacet
  facet normal 0 0 1
    outer loop
      vertex -2.25 -9.89711 8
      vertex -4.5 6 8
      vertex -3.01109 -9.34415 8
    endloop
  endfacet
  facet normal 0 0 1
    outer loop
      vertex -1.39058 -10.2798 8
      vertex -4.5 6 8
      vertex -2.25 -9.89711 8
    endloop
  endfacet
  facet normal 0 0 1
    outer loop
      vertex -0.470378 -10.4753 8
      vertex -4.5 6 8
      vertex -1.39058 -10.2798 8
    endloop
  endfacet
  facet normal 0 0 1
    outer loop
      vertex 0.470378 -10.4753 8
      vertex -4.5 6 8
      vertex -0.470378 -10.4753 8
    endloop
  endfacet
  facet normal 0 0 1
    outer loop
      vertex 1.39058 -10.2798 8
      vertex -4.5 6 8
      vertex 0.470378 -10.4753 8
    endloop
  endfacet
  facet normal 0 0 1
    outer loop
      vertex 2.25 -9.89711 8
      vertex -4.5 6 8
      vertex 1.39058 -10.2798 8
    endloop
  endfacet
  facet normal 0 0 1
    outer loop
      vertex 3.01109 -9.34415 8
      vertex -4.5 6 8
      vertex 2.25 -9.89711 8
    endloop
  endfacet
  facet normal 0 0 1
    outer loop
      vertex 3.64058 -8.64503 8
      vertex -4.5 6 8
      vertex 3.01109 -9.34415 8
    endloop
  endfacet
  facet normal 0 0 1
    outer loop
      vertex 4.11095 -7.83031 8
      vertex -4.5 6 8
      vertex 3.64058 -8.64503 8
    endloop
  endfacet
  facet normal 0 0 1
    outer loop
      vertex 4.40166 -6.9356 8
      vertex -4.5 6 8
      vertex 4.11095 -7.83031 8
    endloop
  endfacet
  facet normal 0 0 1
    outer loop
      vertex 4.5 -6 8
      vertex -4.5 6 8
      vertex 4.40166 -6.9356 8
    endloop
  endfacet
  facet normal 0 0 1
    outer loop
      vertex -1.21352 5.11832 8
      vertex -4.5 6 8
      vertex 4.5 -6 8
    endloop
  endfacet
  facet normal 0 0 1
    outer loop
      vertex -1.46722 5.68813 8
      vertex -1.5 6 8
      vertex -4.5 6 8
    endloop
  endfacet
  facet normal 0 0 1
    outer loop
      vertex 1.37032 6.6101 8
      vertex 1.46722 6.31187 8
      vertex 4.40166 6.9356 8
    endloop
  endfacet
  facet normal 0 0 1
    outer loop
      vertex -1.46722 6.31187 8
      vertex -1.37032 6.6101 8
      vertex -4.5 6 8
    endloop
  endfacet
  facet normal 0 0 1
    outer loop
      vertex 1.5 6 8
      vertex 1.46722 5.68813 8
      vertex 4.5 6 8
    endloop
  endfacet
  facet normal 0 0 1
    outer loop
      vertex -1.46722 6.31187 8
      vertex -4.5 6 8
      vertex -1.5 6 8
    endloop
  endfacet
  facet normal 0 0 1
    outer loop
      vertex -0.156793 7.49178 8
      vertex 0.156793 7.49178 8
      vertex 3.64058 8.64503 8
    endloop
  endfacet
  facet normal 0 0 1
    outer loop
      vertex -0.463525 7.42658 8
      vertex 3.01109 9.34415 8
      vertex -0.75 7.29904 8
    endloop
  endfacet
  facet normal 0 0 1
    outer loop
      vertex 3.64058 8.64503 8
      vertex 3.01109 9.34415 8
      vertex -0.463525 7.42658 8
    endloop
  endfacet
  facet normal 0 0 1
    outer loop
      vertex 0.75 7.29904 8
      vertex 1.0037 7.11472 8
      vertex 4.11095 7.83031 8
    endloop
  endfacet
  facet normal 0 0 1
    outer loop
      vertex 3.64058 8.64503 8
      vertex -0.463525 7.42658 8
      vertex -0.156793 7.49178 8
    endloop
  endfacet
  facet normal 0 0 1
    outer loop
      vertex 4.11095 7.83031 8
      vertex 3.64058 8.64503 8
      vertex 0.463525 7.42658 8
    endloop
  endfacet
  facet normal 0 0 1
    outer loop
      vertex 1.21352 6.88168 8
      vertex 1.37032 6.6101 8
      vertex 4.40166 6.9356 8
    endloop
  endfacet
  facet normal 0 0 1
    outer loop
      vertex 4.11095 7.83031 8
      vertex 0.463525 7.42658 8
      vertex 0.75 7.29904 8
    endloop
  endfacet
  facet normal 0 0 1
    outer loop
      vertex 4.40166 6.9356 8
      vertex 4.11095 7.83031 8
      vertex 1.0037 7.11472 8
    endloop
  endfacet
  facet normal 0 0 1
    outer loop
      vertex 4.40166 6.9356 8
      vertex 1.0037 7.11472 8
      vertex 1.21352 6.88168 8
    endloop
  endfacet
  facet normal 0 0 1
    outer loop
      vertex 1.46722 6.31187 8
      vertex 1.5 6 8
      vertex 4.5 6 8
    endloop
  endfacet
  facet normal 0 0 1
    outer loop
      vertex 4.40166 6.9356 8
      vertex 1.46722 6.31187 8
      vertex 4.5 6 8
    endloop
  endfacet
  facet normal 0 0 1
    outer loop
      vertex -1.0037 4.88528 8
      vertex -1.21352 5.11832 8
      vertex 4.5 -6 8
    endloop
  endfacet
  facet normal 0 0 1
    outer loop
      vertex 4.5 6 8
      vertex 1.46722 5.68813 8
      vertex 4.5 -6 8
    endloop
  endfacet
  facet normal 0 0 1
    outer loop
      vertex 1.46722 5.68813 8
      vertex 1.37032 5.38989 8
      vertex 4.5 -6 8
    endloop
  endfacet
  facet normal 0 0 1
    outer loop
      vertex 1.37032 5.38989 8
      vertex 1.21352 5.11832 8
      vertex 4.5 -6 8
    endloop
  endfacet
  facet normal 0 0 1
    outer loop
      vertex 1.21352 5.11832 8
      vertex 1.0037 4.88528 8
      vertex 4.5 -6 8
    endloop
  endfacet
  facet normal 0 0 1
    outer loop
      vertex 1.0037 4.88528 8
      vertex 0.75 4.70096 8
      vertex 4.5 -6 8
    endloop
  endfacet
  facet normal 0 0 1
    outer loop
      vertex 0.75 4.70096 8
      vertex 0.463525 4.57341 8
      vertex 4.5 -6 8
    endloop
  endfacet
  facet normal 0 0 1
    outer loop
      vertex 0.463525 4.57341 8
      vertex 0.156793 4.50822 8
      vertex 4.5 -6 8
    endloop
  endfacet
  facet normal 0 0 1
    outer loop
      vertex 0.156793 4.50822 8
      vertex -0.156793 4.50822 8
      vertex 4.5 -6 8
    endloop
  endfacet
  facet normal 0 0 1
    outer loop
      vertex -0.156793 4.50822 8
      vertex -0.463525 4.57341 8
      vertex 4.5 -6 8
    endloop
  endfacet
  facet normal 0 0 1
    outer loop
      vertex -0.463525 4.57341 8
      vertex -0.75 4.70096 8
      vertex 4.5 -6 8
    endloop
  endfacet
  facet normal 0 0 1
    outer loop
      vertex -0.75 4.70096 8
      vertex -1.0037 4.88528 8
      vertex 4.5 -6 8
    endloop
  endfacet
  facet normal 0 0 1
    outer loop
      vertex -1.37032 5.3899 8
      vertex -4.5 6 8
      vertex -1.21352 5.11832 8
    endloop
  endfacet
  facet normal 0 0 1
    outer loop
      vertex -1.46722 5.68813 8
      vertex -4.5 6 8
      vertex -1.37032 5.3899 8
    endloop
  endfacet
  facet normal 0 0 1
    outer loop
      vertex -4.5 6 8
      vertex -4.11095 7.83031 8
      vertex -4.40166 6.9356 8
    endloop
  endfacet
  facet normal 0 0 1
    outer loop
      vertex -4.5 6 8
      vertex -3.64058 8.64503 8
      vertex -4.11095 7.83031 8
    endloop
  endfacet
  facet normal 0 0 1
    outer loop
      vertex -4.5 6 8
      vertex -3.01109 9.34415 8
      vertex -3.64058 8.64503 8
    endloop
  endfacet
  facet normal 0 0 1
    outer loop
      vertex -4.5 6 8
      vertex -2.25 9.89711 8
      vertex -3.01109 9.34415 8
    endloop
  endfacet
  facet normal 0 0 1
    outer loop
      vertex -4.5 6 8
      vertex -1.39058 10.2798 8
      vertex -2.25 9.89711 8
    endloop
  endfacet
  facet normal 0 0 1
    outer loop
      vertex -4.5 6 8
      vertex -0.470378 10.4753 8
      vertex -1.39058 10.2798 8
    endloop
  endfacet
  facet normal 0 0 1
    outer loop
      vertex -4.5 6 8
      vertex 0.470378 10.4753 8
      vertex -0.470378 10.4753 8
    endloop
  endfacet
  facet normal 0 0 1
    outer loop
      vertex -4.5 6 8
      vertex 1.39058 10.2798 8
      vertex 0.470378 10.4753 8
    endloop
  endfacet
  facet normal 0 0 1
    outer loop
      vertex -4.5 6 8
      vertex 2.25 9.89711 8
      vertex 1.39058 10.2798 8
    endloop
  endfacet
  facet normal 0 0 1
    outer loop
      vertex -4.5 6 8
      vertex 3.01109 9.34415 8
      vertex 2.25 9.89711 8
    endloop
  endfacet
  facet normal 0 0 1
    outer loop
      vertex -4.5 6 8
      vertex -0.75 7.29904 8
      vertex 3.01109 9.34415 8
    endloop
  endfacet
  facet normal 0 0 1
    outer loop
      vertex -4.5 6 8
      vertex -1.21352 6.88168 8
      vertex -1.0037 7.11472 8
    endloop
  endfacet
  facet normal 0 0 1
    outer loop
      vertex 0.156793 7.49178 8
      vertex 0.463525 7.42658 8
      vertex 3.64058 8.64503 8
    endloop
  endfacet
  facet normal 0 0 1
    outer loop
      vertex -1.0037 7.11472 8
      vertex -0.75 7.29904 8
      vertex -4.5 6 8
    endloop
  endfacet
  facet normal 0 0 1
    outer loop
      vertex -1.37032 6.6101 8
      vertex -1.21352 6.88168 8
      vertex -4.5 6 8
    endloop
  endfacet
  facet normal -0.951057 -0.309016 0
    outer loop
      vertex -4.40166 -6.9356 0
      vertex -4.11095 -7.83031 0
      vertex -4.40166 -6.9356 8
    endloop
  endfacet
  facet normal -0.951057 -0.309016 0
    outer loop
      vertex -4.40166 -6.9356 8
      vertex -4.11095 -7.83031 0
      vertex -4.11095 -7.83031 8
    endloop
  endfacet
  facet normal -0.866025 -0.500001 0
    outer loop
      vertex -4.11095 -7.83031 0
      vertex -3.64058 -8.64503 0
      vertex -4.11095 -7.83031 8
    endloop
  endfacet
  facet normal -0.866025 -0.500001 0
    outer loop
      vertex -4.11095 -7.83031 8
      vertex -3.64058 -8.64503 0
      vertex -3.64058 -8.64503 8
    endloop
  endfacet
  facet normal -0.743145 -0.66913 0
    outer loop
      vertex -3.64058 -8.64503 0
      vertex -3.01109 -9.34415 0
      vertex -3.64058 -8.64503 8
    endloop
  endfacet
  facet normal -0.743145 -0.66913 0
    outer loop
      vertex -3.64058 -8.64503 8
      vertex -3.01109 -9.34415 0
      vertex -3.01109 -9.34415 8
    endloop
  endfacet
  facet normal -0.587785 -0.809017 0
    outer loop
      vertex -3.01109 -9.34415 8
      vertex -3.01109 -9.34415 0
      vertex -2.25 -9.89711 0
    endloop
  endfacet
  facet normal -0.587785 -0.809017 0
    outer loop
      vertex -2.25 -9.89711 8
      vertex -3.01109 -9.34415 8
      vertex -2.25 -9.89711 4
    endloop
  endfacet
  facet normal -0.587785 -0.809017 0
    outer loop
      vertex -2.25 -9.89711 4
      vertex -3.01109 -9.34415 8
      vertex -2.25 -9.89711 0
    endloop
  endfacet
  facet normal -0.406736 -0.913546 0
    outer loop
      vertex -2.05548 -9.98372 3.08484
      vertex -2.25 -9.89711 0
      vertex -1.39058 -10.2798 0
    endloop
  endfacet
  facet normal -0.406736 -0.913546 0
    outer loop
      vertex -1.39058 -10.2798 2.24439
      vertex -1.50554 -10.2286 2.32792
      vertex -1.39058 -10.2798 0
    endloop
  endfacet
  facet normal -0.406736 -0.913546 0
    outer loop
      vertex -1.50554 -10.2286 2.32792
      vertex -1.82029 -10.0884 2.67748
      vertex -1.39058 -10.2798 0
    endloop
  endfacet
  facet normal -0.406736 -0.913546 0
    outer loop
      vertex -2.20083 -9.919 3.5322
      vertex -2.25 -9.89711 0
      vertex -2.05548 -9.98372 3.08484
    endloop
  endfacet
  facet normal -0.406736 -0.913546 0
    outer loop
      vertex -2.25 -9.89711 4
      vertex -2.25 -9.89711 0
      vertex -2.20083 -9.919 3.5322
    endloop
  endfacet
  facet normal -0.406736 -0.913546 0
    outer loop
      vertex -1.82029 -10.0884 2.67748
      vertex -2.05548 -9.98372 3.08484
      vertex -1.39058 -10.2798 0
    endloop
  endfacet
  facet normal -0.207913 -0.978147 0
    outer loop
      vertex -1.39058 -10.2798 2.24439
      vertex -1.39058 -10.2798 0
      vertex -0.470378 -10.4753 0
    endloop
  endfacet
  facet normal -0.207913 -0.978147 0
    outer loop
      vertex -1.125 -10.3362 2.05144
      vertex -1.39058 -10.2798 2.24439
      vertex -0.470378 -10.4753 0
    endloop
  endfacet
  facet normal -0.207913 -0.978147 0
    outer loop
      vertex -0.470378 -10.4753 1.81232
      vertex -0.695288 -10.4275 1.86012
      vertex -0.470378 -10.4753 0
    endloop
  endfacet
  facet normal -0.207913 -0.978147 0
    outer loop
      vertex -0.695288 -10.4275 1.86012
      vertex -1.125 -10.3362 2.05144
      vertex -0.470378 -10.4753 0
    endloop
  endfacet
  facet normal 0 -1 0
    outer loop
      vertex -0.470378 -10.4753 1.81232
      vertex -0.470378 -10.4753 0
      vertex 0.470378 -10.4753 0
    endloop
  endfacet
  facet normal 0 -1 0
    outer loop
      vertex -0.235189 -10.4753 1.76233
      vertex -0.470378 -10.4753 1.81232
      vertex 0.470378 -10.4753 0
    endloop
  endfacet
  facet normal 0 -1 0
    outer loop
      vertex 0.470378 -10.4753 1.81232
      vertex 0.235189 -10.4753 1.76233
      vertex 0.470378 -10.4753 0
    endloop
  endfacet
  facet normal 0 -1 0
    outer loop
      vertex 0.235189 -10.4753 1.76233
      vertex -0.235189 -10.4753 1.76233
      vertex 0.470378 -10.4753 0
    endloop
  endfacet
  facet normal 0.207913 -0.978147 0
    outer loop
      vertex 0.470378 -10.4753 1.81232
      vertex 0.470378 -10.4753 0
      vertex 1.39058 -10.2798 0
    endloop
  endfacet
  facet normal 0.207913 -0.978147 0
    outer loop
      vertex 0.695288 -10.4275 1.86012
      vertex 0.470378 -10.4753 1.81232
      vertex 1.39058 -10.2798 0
    endloop
  endfacet
  facet normal 0.207913 -0.978147 0
    outer loop
      vertex 1.39058 -10.2798 2.24439
      vertex 1.125 -10.3362 2.05144
      vertex 1.39058 -10.2798 0
    endloop
  endfacet
  facet normal 0.207913 -0.978147 0
    outer loop
      vertex 1.125 -10.3362 2.05144
      vertex 0.695288 -10.4275 1.86012
      vertex 1.39058 -10.2798 0
    endloop
  endfacet
  facet normal 0.406736 -0.913546 0
    outer loop
      vertex 1.39058 -10.2798 2.24439
      vertex 1.39058 -10.2798 0
      vertex 2.25 -9.89711 0
    endloop
  endfacet
  facet normal 0.406736 -0.913546 0
    outer loop
      vertex 1.50554 -10.2286 2.32792
      vertex 1.39058 -10.2798 2.24439
      vertex 2.25 -9.89711 0
    endloop
  endfacet
  facet normal 0.406736 -0.913546 0
    outer loop
      vertex 2.25 -9.89711 4
      vertex 2.20083 -9.919 3.5322
      vertex 2.25 -9.89711 0
    endloop
  endfacet
  facet normal 0.406736 -0.913546 0
    outer loop
      vertex 2.20083 -9.919 3.5322
      vertex 2.05548 -9.98372 3.08484
      vertex 2.25 -9.89711 0
    endloop
  endfacet
  facet normal 0.406736 -0.913546 0
    outer loop
      vertex 2.05548 -9.98372 3.08484
      vertex 1.82029 -10.0884 2.67748
      vertex 2.25 -9.89711 0
    endloop
  endfacet
  facet normal 0.406736 -0.913546 0
    outer loop
      vertex 1.82029 -10.0884 2.67748
      vertex 1.50554 -10.2286 2.32792
      vertex 2.25 -9.89711 0
    endloop
  endfacet
  facet normal 0.587785 -0.809017 0
    outer loop
      vertex 2.25 -9.89711 4
      vertex 2.25 -9.89711 0
      vertex 3.01109 -9.34415 0
    endloop
  endfacet
  facet normal 0.587785 -0.809017 0
    outer loop
      vertex 2.25 -9.89711 8
      vertex 2.25 -9.89711 4
      vertex 3.01109 -9.34415 8
    endloop
  endfacet
  facet normal 0.587785 -0.809017 0
    outer loop
      vertex 3.01109 -9.34415 8
      vertex 2.25 -9.89711 4
      vertex 3.01109 -9.34415 0
    endloop
  endfacet
  facet normal 0.743145 -0.66913 0
    outer loop
      vertex 3.01109 -9.34415 8
      vertex 3.01109 -9.34415 0
      vertex 3.64058 -8.64503 0
    endloop
  endfacet
  facet normal 0.743145 -0.66913 0
    outer loop
      vertex 3.64058 -8.64503 8
      vertex 3.01109 -9.34415 8
      vertex 3.64058 -8.64503 0
    endloop
  endfacet
  facet normal 0.866025 -0.500001 0
    outer loop
      vertex 3.64058 -8.64503 8
      vertex 3.64058 -8.64503 0
      vertex 4.11095 -7.83031 0
    endloop
  endfacet
  facet normal 0.866025 -0.500001 0
    outer loop
      vertex 4.11095 -7.83031 8
      vertex 3.64058 -8.64503 8
      vertex 4.11095 -7.83031 0
    endloop
  endfacet
  facet normal 0.951057 -0.309016 0
    outer loop
      vertex 4.11095 -7.83031 8
      vertex 4.11095 -7.83031 0
      vertex 4.40166 -6.9356 0
    endloop
  endfacet
  facet normal 0.951057 -0.309016 0
    outer loop
      vertex 4.40166 -6.9356 8
      vertex 4.11095 -7.83031 8
      vertex 4.40166 -6.9356 0
    endloop
  endfacet
  facet normal 0.994522 -0.104529 0
    outer loop
      vertex 4.40166 -6.9356 8
      vertex 4.40166 -6.9356 0
      vertex 4.5 -6 0
    endloop
  endfacet
  facet normal 0.994522 -0.104529 0
    outer loop
      vertex 4.5 -6 8
      vertex 4.40166 -6.9356 8
      vertex 4.5 -6 0
    endloop
  endfacet
  facet normal 1 0 0
    outer loop
      vertex 4.5 -6 8
      vertex 4.5 -6 0
      vertex 4.5 6 0
    endloop
  endfacet
  facet normal 1 0 0
    outer loop
      vertex 4.5 6 8
      vertex 4.5 -6 8
      vertex 4.5 6 0
    endloop
  endfacet
  facet normal 0.994522 0.104529 0
    outer loop
      vertex 4.5 6 0
      vertex 4.40166 6.9356 0
      vertex 4.40166 6.9356 8
    endloop
  endfacet
  facet normal 0.994522 0.104529 0
    outer loop
      vertex 4.5 6 8
      vertex 4.5 6 0
      vertex 4.40166 6.9356 8
    endloop
  endfacet
  facet normal 0.951057 0.309016 0
    outer loop
      vertex 4.40166 6.9356 0
      vertex 4.11095 7.83031 0
      vertex 4.11095 7.83031 8
    endloop
  endfacet
  facet normal 0.951057 0.309016 0
    outer loop
      vertex 4.40166 6.9356 8
      vertex 4.40166 6.9356 0
      vertex 4.11095 7.83031 8
    endloop
  endfacet
  facet normal 0.866025 0.500001 0
    outer loop
      vertex 4.11095 7.83031 0
      vertex 3.64058 8.64503 0
      vertex 3.64058 8.64503 8
    endloop
  endfacet
  facet normal 0.866025 0.500001 0
    outer loop
      vertex 4.11095 7.83031 8
      vertex 4.11095 7.83031 0
      vertex 3.64058 8.64503 8
    endloop
  endfacet
  facet normal 0.743145 0.66913 0
    outer loop
      vertex 3.64058 8.64503 0
      vertex 3.01109 9.34415 0
      vertex 3.01109 9.34415 8
    endloop
  endfacet
  facet normal 0.743145 0.66913 0
    outer loop
      vertex 3.64058 8.64503 8
      vertex 3.64058 8.64503 0
      vertex 3.01109 9.34415 8
    endloop
  endfacet
  facet normal 0.587785 0.809017 0
    outer loop
      vertex 2.25 9.89711 0
      vertex 2.25 9.89711 8
      vertex 3.01109 9.34415 0
    endloop
  endfacet
  facet normal 0.587785 0.809017 0
    outer loop
      vertex 3.01109 9.34415 0
      vertex 2.25 9.89711 8
      vertex 3.01109 9.34415 8
    endloop
  endfacet
  facet normal 0.406736 0.913546 0
    outer loop
      vertex 1.39058 10.2798 0
      vertex 1.39058 10.2798 2.24439
      vertex 2.25 9.89711 0
    endloop
  endfacet
  facet normal 0.406736 0.913546 0
    outer loop
      vertex 2.25 9.89711 0
      vertex 1.39058 10.2798 2.24439
      vertex 1.50554 10.2286 2.32792
    endloop
  endfacet
  facet normal 0.406736 0.913546 0
    outer loop
      vertex 2.25 9.89711 0
      vertex 1.50554 10.2286 2.32792
      vertex 1.82029 10.0884 2.67748
    endloop
  endfacet
  facet normal 0.406736 0.913546 0
    outer loop
      vertex 1.82029 10.0884 2.67748
      vertex 2.05548 9.98372 3.08484
      vertex 2.25 9.89711 0
    endloop
  endfacet
  facet normal 0.406736 0.913546 0
    outer loop
      vertex 2.05548 9.98372 3.08484
      vertex 2.20083 9.919 3.5322
      vertex 2.25 9.89711 0
    endloop
  endfacet
  facet normal 0.406736 0.913546 0
    outer loop
      vertex 2.20083 9.919 3.5322
      vertex 2.25 9.89711 4
      vertex 2.25 9.89711 0
    endloop
  endfacet
  facet normal 0.406736 0.913546 0
    outer loop
      vertex 2.25 9.89711 4
      vertex 2.25 9.89711 8
      vertex 2.25 9.89711 0
    endloop
  endfacet
  facet normal 0.406736 0.913546 0
    outer loop
      vertex 2.05548 9.98372 4.91516
      vertex 1.39058 10.2798 8
      vertex 2.20083 9.919 4.4678
    endloop
  endfacet
  facet normal 0.406736 0.913546 0
    outer loop
      vertex 1.82029 10.0884 5.32252
      vertex 1.39058 10.2798 8
      vertex 2.05548 9.98372 4.91516
    endloop
  endfacet
  facet normal 0.406736 0.913546 0
    outer loop
      vertex 1.50554 10.2286 5.67208
      vertex 1.39058 10.2798 5.75561
      vertex 1.39058 10.2798 8
    endloop
  endfacet
  facet normal 0.406736 0.913546 0
    outer loop
      vertex 1.50554 10.2286 5.67208
      vertex 1.39058 10.2798 8
      vertex 1.82029 10.0884 5.32252
    endloop
  endfacet
  facet normal 0.406736 0.913546 0
    outer loop
      vertex 2.20083 9.919 4.4678
      vertex 1.39058 10.2798 8
      vertex 2.25 9.89711 8
    endloop
  endfacet
  facet normal 0.406736 0.913546 0
    outer loop
      vertex 2.20083 9.919 4.4678
      vertex 2.25 9.89711 8
      vertex 2.25 9.89711 4
    endloop
  endfacet
  facet normal 0.207913 0.978147 0
    outer loop
      vertex 0.470378 10.4753 0
      vertex 0.470378 10.4753 1.81232
      vertex 1.39058 10.2798 0
    endloop
  endfacet
  facet normal 0.207913 0.978147 0
    outer loop
      vertex 1.39058 10.2798 0
      vertex 0.470378 10.4753 1.81232
      vertex 0.695288 10.4275 1.86012
    endloop
  endfacet
  facet normal 0.207913 0.978147 0
    outer loop
      vertex 1.39058 10.2798 0
      vertex 0.695288 10.4275 1.86012
      vertex 1.125 10.3362 2.05144
    endloop
  endfacet
  facet normal 0.207913 0.978147 0
    outer loop
      vertex 1.125 10.3362 2.05144
      vertex 1.39058 10.2798 2.24439
      vertex 1.39058 10.2798 0
    endloop
  endfacet
  facet normal 1.22465e-16 1 0
    outer loop
      vertex -0.470378 10.4753 0
      vertex -0.470378 10.4753 1.81232
      vertex 0.470378 10.4753 0
    endloop
  endfacet
  facet normal 1.22465e-16 1 0
    outer loop
      vertex 0.470378 10.4753 0
      vertex -0.470378 10.4753 1.81232
      vertex -0.235189 10.4753 1.76233
    endloop
  endfacet
  facet normal 1.22465e-16 1 0
    outer loop
      vertex 0.470378 10.4753 0
      vertex -0.235189 10.4753 1.76233
      vertex 0.235189 10.4753 1.76233
    endloop
  endfacet
  facet normal 1.22465e-16 1 0
    outer loop
      vertex 0.235189 10.4753 1.76233
      vertex 0.470378 10.4753 1.81232
      vertex 0.470378 10.4753 0
    endloop
  endfacet
  facet normal -0.207913 0.978147 0
    outer loop
      vertex -1.39058 10.2798 0
      vertex -1.39058 10.2798 2.24439
      vertex -0.470378 10.4753 0
    endloop
  endfacet
  facet normal -0.207913 0.978147 0
    outer loop
      vertex -0.470378 10.4753 0
      vertex -1.39058 10.2798 2.24439
      vertex -1.125 10.3362 2.05144
    endloop
  endfacet
  facet normal -0.207913 0.978147 0
    outer loop
      vertex -0.470378 10.4753 0
      vertex -1.125 10.3362 2.05144
      vertex -0.695288 10.4275 1.86012
    endloop
  endfacet
  facet normal -0.207913 0.978147 0
    outer loop
      vertex -0.695288 10.4275 1.86012
      vertex -0.470378 10.4753 1.81232
      vertex -0.470378 10.4753 0
    endloop
  endfacet
  facet normal -0.406736 0.913546 0
    outer loop
      vertex -2.25 9.89711 0
      vertex -2.20083 9.919 3.5322
      vertex -1.39058 10.2798 0
    endloop
  endfacet
  facet normal -0.406736 0.913546 0
    outer loop
      vertex -2.25 9.89711 0
      vertex -2.25 9.89711 4
      vertex -2.20083 9.919 3.5322
    endloop
  endfacet
  facet normal -0.406736 0.913546 0
    outer loop
      vertex -2.20083 9.919 3.5322
      vertex -2.05548 9.98372 3.08484
      vertex -1.39058 10.2798 0
    endloop
  endfacet
  facet normal -0.406736 0.913546 0
    outer loop
      vertex -1.39058 10.2798 0
      vertex -1.82029 10.0884 2.67748
      vertex -1.50554 10.2286 2.32792
    endloop
  endfacet
  facet normal -0.406736 0.913546 0
    outer loop
      vertex -1.50554 10.2286 2.32792
      vertex -1.39058 10.2798 2.24439
      vertex -1.39058 10.2798 0
    endloop
  endfacet
  facet normal -0.406736 0.913546 0
    outer loop
      vertex -1.82029 10.0884 2.67748
      vertex -1.39058 10.2798 0
      vertex -2.05548 9.98372 3.08484
    endloop
  endfacet
  facet normal -0.587785 0.809017 0
    outer loop
      vertex -3.01109 9.34415 0
      vertex -3.01109 9.34415 8
      vertex -2.25 9.89711 0
    endloop
  endfacet
  facet normal -0.587785 0.809017 0
    outer loop
      vertex -2.25 9.89711 4
      vertex -3.01109 9.34415 8
      vertex -2.25 9.89711 8
    endloop
  endfacet
  facet normal -0.587785 0.809017 0
    outer loop
      vertex -2.25 9.89711 0
      vertex -3.01109 9.34415 8
      vertex -2.25 9.89711 4
    endloop
  endfacet
  facet normal -0.743145 0.66913 0
    outer loop
      vertex -3.64058 8.64503 0
      vertex -3.64058 8.64503 8
      vertex -3.01109 9.34415 0
    endloop
  endfacet
  facet normal -0.743145 0.66913 0
    outer loop
      vertex -3.01109 9.34415 0
      vertex -3.64058 8.64503 8
      vertex -3.01109 9.34415 8
    endloop
  endfacet
  facet normal -0.866025 0.500001 0
    outer loop
      vertex -4.11095 7.83031 0
      vertex -4.11095 7.83031 8
      vertex -3.64058 8.64503 0
    endloop
  endfacet
  facet normal -0.866025 0.500001 0
    outer loop
      vertex -3.64058 8.64503 0
      vertex -4.11095 7.83031 8
      vertex -3.64058 8.64503 8
    endloop
  endfacet
  facet normal -0.951057 0.309016 0
    outer loop
      vertex -4.40166 6.9356 0
      vertex -4.40166 6.9356 8
      vertex -4.11095 7.83031 0
    endloop
  endfacet
  facet normal -0.951057 0.309016 0
    outer loop
      vertex -4.11095 7.83031 0
      vertex -4.40166 6.9356 8
      vertex -4.11095 7.83031 8
    endloop
  endfacet
  facet normal -0.994522 0.104529 0
    outer loop
      vertex -4.5 6 0
      vertex -4.5 6 8
      vertex -4.40166 6.9356 0
    endloop
  endfacet
  facet normal -0.994522 0.104529 0
    outer loop
      vertex -4.40166 6.9356 0
      vertex -4.5 6 8
      vertex -4.40166 6.9356 8
    endloop
  endfacet
  facet normal 0.994522 -0.10453 0
    outer loop
      vertex -1.46722 6.31187 0
      vertex -1.46722 6.31187 2.30008
      vertex -1.5 6 2.3239
    endloop
  endfacet
  facet normal 0.994522 -0.10453 0
    outer loop
      vertex -1.5 6 0
      vertex -1.46722 6.31187 0
      vertex -1.5 6 2.3239
    endloop
  endfacet
  facet normal 0.994522 0.10453 0
    outer loop
      vertex -1.5 6 2.3239
      vertex -1.46722 5.68813 2.30008
      vertex -1.46722 5.68813 0
    endloop
  endfacet
  facet normal 0.994522 0.10453 0
    outer loop
      vertex -1.5 6 0
      vertex -1.5 6 2.3239
      vertex -1.46722 5.68813 0
    endloop
  endfacet
  facet normal 0.951057 -0.309017 0
    outer loop
      vertex -1.37032 6.6101 0
      vertex -1.37032 6.6101 2.22968
      vertex -1.46722 6.31187 2.30008
    endloop
  endfacet
  facet normal 0.951057 -0.309017 0
    outer loop
      vertex -1.46722 6.31187 0
      vertex -1.37032 6.6101 0
      vertex -1.46722 6.31187 2.30008
    endloop
  endfacet
  facet normal 0.866025 -0.500001 0
    outer loop
      vertex -1.21352 6.88168 0
      vertex -1.21352 6.88168 2.11576
      vertex -1.37032 6.6101 2.22968
    endloop
  endfacet
  facet normal 0.866025 -0.500001 0
    outer loop
      vertex -1.37032 6.6101 0
      vertex -1.21352 6.88168 0
      vertex -1.37032 6.6101 2.22968
    endloop
  endfacet
  facet normal 0.743145 -0.66913 0
    outer loop
      vertex -1.0037 7.11472 0
      vertex -1.0037 7.11472 1.99744
      vertex -1.125 6.98 2.05144
    endloop
  endfacet
  facet normal 0.743145 -0.66913 0
    outer loop
      vertex -1.21352 6.88168 2.11576
      vertex -1.0037 7.11472 0
      vertex -1.125 6.98 2.05144
    endloop
  endfacet
  facet normal 0.743145 -0.66913 0
    outer loop
      vertex -1.21352 6.88168 2.11576
      vertex -1.21352 6.88168 0
      vertex -1.0037 7.11472 0
    endloop
  endfacet
  facet normal 0.587785 -0.809017 0
    outer loop
      vertex -0.75 7.29904 0
      vertex -0.75 7.29904 1.88448
      vertex -1.0037 7.11472 1.99744
    endloop
  endfacet
  facet normal 0.587785 -0.809017 0
    outer loop
      vertex -1.0037 7.11472 0
      vertex -0.75 7.29904 0
      vertex -1.0037 7.11472 1.99744
    endloop
  endfacet
  facet normal 0.406737 -0.913545 0
    outer loop
      vertex -0.463525 7.42658 0
      vertex -0.463525 7.42658 1.81086
      vertex -0.695288 7.3234 1.86012
    endloop
  endfacet
  facet normal 0.406737 -0.913545 0
    outer loop
      vertex -0.75 7.29904 1.88448
      vertex -0.463525 7.42658 0
      vertex -0.695288 7.3234 1.86012
    endloop
  endfacet
  facet normal 0.406737 -0.913545 0
    outer loop
      vertex -0.75 7.29904 1.88448
      vertex -0.75 7.29904 0
      vertex -0.463525 7.42658 0
    endloop
  endfacet
  facet normal 0.207912 -0.978148 0
    outer loop
      vertex -0.156793 7.49178 0
      vertex -0.156793 7.49178 1.76233
      vertex -0.235189 7.47512 1.76233
    endloop
  endfacet
  facet normal 0.207912 -0.978148 0
    outer loop
      vertex -0.463525 7.42658 1.81086
      vertex -0.156793 7.49178 0
      vertex -0.235189 7.47512 1.76233
    endloop
  endfacet
  facet normal 0.207912 -0.978148 0
    outer loop
      vertex -0.463525 7.42658 1.81086
      vertex -0.463525 7.42658 0
      vertex -0.156793 7.49178 0
    endloop
  endfacet
  facet normal -1.22465e-16 -1 0
    outer loop
      vertex 0.156793 7.49178 0
      vertex 0.156793 7.49178 1.76233
      vertex -0.156793 7.49178 1.76233
    endloop
  endfacet
  facet normal -1.22465e-16 -1 0
    outer loop
      vertex -0.156793 7.49178 0
      vertex 0.156793 7.49178 0
      vertex -0.156793 7.49178 1.76233
    endloop
  endfacet
  facet normal -0.207912 -0.978148 0
    outer loop
      vertex 0.463525 7.42658 0
      vertex 0.463525 7.42658 1.81086
      vertex 0.235189 7.47512 1.76233
    endloop
  endfacet
  facet normal -0.207912 -0.978148 0
    outer loop
      vertex 0.156793 7.49178 1.76233
      vertex 0.463525 7.42658 0
      vertex 0.235189 7.47512 1.76233
    endloop
  endfacet
  facet normal -0.207912 -0.978148 0
    outer loop
      vertex 0.156793 7.49178 1.76233
      vertex 0.156793 7.49178 0
      vertex 0.463525 7.42658 0
    endloop
  endfacet
  facet normal -0.406737 -0.913545 0
    outer loop
      vertex 0.75 7.29904 0
      vertex 0.75 7.29904 1.88448
      vertex 0.695288 7.3234 1.86012
    endloop
  endfacet
  facet normal -0.406737 -0.913545 0
    outer loop
      vertex 0.463525 7.42658 1.81086
      vertex 0.75 7.29904 0
      vertex 0.695288 7.3234 1.86012
    endloop
  endfacet
  facet normal -0.406737 -0.913545 0
    outer loop
      vertex 0.463525 7.42658 1.81086
      vertex 0.463525 7.42658 0
      vertex 0.75 7.29904 0
    endloop
  endfacet
  facet normal -0.587785 -0.809017 0
    outer loop
      vertex 1.0037 7.11472 0
      vertex 1.0037 7.11472 1.99744
      vertex 0.75 7.29904 1.88448
    endloop
  endfacet
  facet normal -0.587785 -0.809017 0
    outer loop
      vertex 0.75 7.29904 0
      vertex 1.0037 7.11472 0
      vertex 0.75 7.29904 1.88448
    endloop
  endfacet
  facet normal -0.743145 -0.66913 0
    outer loop
      vertex 1.21352 6.88168 2.11576
      vertex 1.125 6.98 2.05144
      vertex 1.21352 6.88168 0
    endloop
  endfacet
  facet normal -0.743145 -0.66913 0
    outer loop
      vertex 1.21352 6.88168 0
      vertex 1.125 6.98 2.05144
      vertex 1.0037 7.11472 1.99744
    endloop
  endfacet
  facet normal -0.743145 -0.66913 0
    outer loop
      vertex 1.21352 6.88168 0
      vertex 1.0037 7.11472 1.99744
      vertex 1.0037 7.11472 0
    endloop
  endfacet
  facet normal -0.866025 -0.500001 0
    outer loop
      vertex 1.37032 6.6101 2.22968
      vertex 1.21352 6.88168 2.11576
      vertex 1.37032 6.6101 0
    endloop
  endfacet
  facet normal -0.866025 -0.500001 0
    outer loop
      vertex 1.37032 6.6101 0
      vertex 1.21352 6.88168 2.11576
      vertex 1.21352 6.88168 0
    endloop
  endfacet
  facet normal -0.951057 -0.309017 0
    outer loop
      vertex 1.46722 6.31187 2.30008
      vertex 1.37032 6.6101 2.22968
      vertex 1.46722 6.31187 0
    endloop
  endfacet
  facet normal -0.951057 -0.309017 0
    outer loop
      vertex 1.46722 6.31187 0
      vertex 1.37032 6.6101 2.22968
      vertex 1.37032 6.6101 0
    endloop
  endfacet
  facet normal -0.994522 -0.10453 0
    outer loop
      vertex 1.5 6 2.3239
      vertex 1.46722 6.31187 2.30008
      vertex 1.5 6 0
    endloop
  endfacet
  facet normal -0.994522 -0.10453 0
    outer loop
      vertex 1.5 6 0
      vertex 1.46722 6.31187 2.30008
      vertex 1.46722 6.31187 0
    endloop
  endfacet
  facet normal -0.994522 0.10453 0
    outer loop
      vertex 1.5 6 2.3239
      vertex 1.5 6 0
      vertex 1.46722 5.68813 2.30008
    endloop
  endfacet
  facet normal -0.994522 0.10453 0
    outer loop
      vertex 1.46722 5.68813 2.30008
      vertex 1.5 6 0
      vertex 1.46722 5.68813 0
    endloop
  endfacet
  facet normal -0.951057 0.309017 0
    outer loop
      vertex 1.46722 5.68813 2.30008
      vertex 1.46722 5.68813 0
      vertex 1.37032 5.38989 2.22968
    endloop
  endfacet
  facet normal -0.951057 0.309017 0
    outer loop
      vertex 1.37032 5.38989 2.22968
      vertex 1.46722 5.68813 0
      vertex 1.37032 5.38989 0
    endloop
  endfacet
  facet normal -0.866025 0.500001 0
    outer loop
      vertex 1.37032 5.38989 2.22968
      vertex 1.37032 5.38989 0
      vertex 1.21352 5.11832 2.11576
    endloop
  endfacet
  facet normal -0.866025 0.500001 0
    outer loop
      vertex 1.21352 5.11832 2.11576
      vertex 1.37032 5.38989 0
      vertex 1.21352 5.11832 0
    endloop
  endfacet
  facet normal -0.743145 0.66913 0
    outer loop
      vertex 1.125 5.02 2.05144
      vertex 1.21352 5.11832 2.11576
      vertex 1.21352 5.11832 0
    endloop
  endfacet
  facet normal -0.743145 0.66913 0
    outer loop
      vertex 1.125 5.02 2.05144
      vertex 1.21352 5.11832 0
      vertex 1.0037 4.88528 1.99744
    endloop
  endfacet
  facet normal -0.743145 0.66913 0
    outer loop
      vertex 1.21352 5.11832 0
      vertex 1.0037 4.88528 0
      vertex 1.0037 4.88528 1.99744
    endloop
  endfacet
  facet normal -0.587785 0.809017 0
    outer loop
      vertex 1.0037 4.88528 1.99744
      vertex 1.0037 4.88528 0
      vertex 0.75 4.70096 1.88448
    endloop
  endfacet
  facet normal -0.587785 0.809017 0
    outer loop
      vertex 0.75 4.70096 1.88448
      vertex 1.0037 4.88528 0
      vertex 0.75 4.70096 0
    endloop
  endfacet
  facet normal -0.406737 0.913545 0
    outer loop
      vertex 0.695288 4.6766 1.86012
      vertex 0.75 4.70096 1.88448
      vertex 0.75 4.70096 0
    endloop
  endfacet
  facet normal -0.406737 0.913545 0
    outer loop
      vertex 0.695288 4.6766 1.86012
      vertex 0.75 4.70096 0
      vertex 0.463525 4.57341 1.81086
    endloop
  endfacet
  facet normal -0.406737 0.913545 0
    outer loop
      vertex 0.75 4.70096 0
      vertex 0.463525 4.57341 0
      vertex 0.463525 4.57341 1.81086
    endloop
  endfacet
  facet normal -0.207912 0.978148 0
    outer loop
      vertex 0.235189 4.52488 1.76233
      vertex 0.463525 4.57341 1.81086
      vertex 0.463525 4.57341 0
    endloop
  endfacet
  facet normal -0.207912 0.978148 0
    outer loop
      vertex 0.235189 4.52488 1.76233
      vertex 0.463525 4.57341 0
      vertex 0.156793 4.50822 1.76233
    endloop
  endfacet
  facet normal -0.207912 0.978148 0
    outer loop
      vertex 0.463525 4.57341 0
      vertex 0.156793 4.50822 0
      vertex 0.156793 4.50822 1.76233
    endloop
  endfacet
  facet normal 1.22465e-16 1 0
    outer loop
      vertex 0.156793 4.50822 1.76233
      vertex 0.156793 4.50822 0
      vertex -0.156793 4.50822 1.76233
    endloop
  endfacet
  facet normal 1.22465e-16 1 0
    outer loop
      vertex -0.156793 4.50822 1.76233
      vertex 0.156793 4.50822 0
      vertex -0.156793 4.50822 0
    endloop
  endfacet
  facet normal 0.207912 0.978148 0
    outer loop
      vertex -0.235189 4.52488 1.76233
      vertex -0.156793 4.50822 1.76233
      vertex -0.156793 4.50822 0
    endloop
  endfacet
  facet normal 0.207912 0.978148 0
    outer loop
      vertex -0.235189 4.52488 1.76233
      vertex -0.156793 4.50822 0
      vertex -0.463525 4.57341 1.81086
    endloop
  endfacet
  facet normal 0.207912 0.978148 0
    outer loop
      vertex -0.156793 4.50822 0
      vertex -0.463525 4.57341 0
      vertex -0.463525 4.57341 1.81086
    endloop
  endfacet
  facet normal 0.406737 0.913545 0
    outer loop
      vertex -0.695288 4.6766 1.86012
      vertex -0.463525 4.57341 1.81086
      vertex -0.463525 4.57341 0
    endloop
  endfacet
  facet normal 0.406737 0.913545 0
    outer loop
      vertex -0.695288 4.6766 1.86012
      vertex -0.463525 4.57341 0
      vertex -0.75 4.70096 1.88448
    endloop
  endfacet
  facet normal 0.406737 0.913545 0
    outer loop
      vertex -0.463525 4.57341 0
      vertex -0.75 4.70096 0
      vertex -0.75 4.70096 1.88448
    endloop
  endfacet
  facet normal 0.587785 0.809017 0
    outer loop
      vertex -0.75 4.70096 1.88448
      vertex -0.75 4.70096 0
      vertex -1.0037 4.88528 1.99744
    endloop
  endfacet
  facet normal 0.587785 0.809017 0
    outer loop
      vertex -1.0037 4.88528 1.99744
      vertex -0.75 4.70096 0
      vertex -1.0037 4.88528 0
    endloop
  endfacet
  facet normal 0.743145 0.66913 0
    outer loop
      vertex -1.21352 5.11832 2.11576
      vertex -1.125 5.02 2.05144
      vertex -1.0037 4.88528 0
    endloop
  endfacet
  facet normal 0.743145 0.66913 0
    outer loop
      vertex -1.0037 4.88528 0
      vertex -1.125 5.02 2.05144
      vertex -1.0037 4.88528 1.99744
    endloop
  endfacet
  facet normal 0.743145 0.66913 0
    outer loop
      vertex -1.21352 5.11832 2.11576
      vertex -1.0037 4.88528 0
      vertex -1.21352 5.11832 0
    endloop
  endfacet
  facet normal 0.866025 0.500001 0
    outer loop
      vertex -1.37032 5.3899 2.22968
      vertex -1.21352 5.11832 2.11576
      vertex -1.21352 5.11832 0
    endloop
  endfacet
  facet normal 0.866025 0.500001 0
    outer loop
      vertex -1.37032 5.3899 0
      vertex -1.37032 5.3899 2.22968
      vertex -1.21352 5.11832 0
    endloop
  endfacet
  facet normal 0.951057 0.309017 0
    outer loop
      vertex -1.46722 5.68813 2.30008
      vertex -1.37032 5.3899 2.22968
      vertex -1.37032 5.3899 0
    endloop
  endfacet
  facet normal 0.951057 0.309017 0
    outer loop
      vertex -1.46722 5.68813 0
      vertex -1.46722 5.68813 2.30008
      vertex -1.37032 5.3899 0
    endloop
  endfacet
  facet normal -0.406736 0.913546 0
    outer loop
      vertex -2.25 9.89711 4
      vertex -2.25 9.89711 8
      vertex -2.20083 9.919 4.4678
    endloop
  endfacet
  facet normal -0.406736 0.913546 0
    outer loop
      vertex -2.20083 9.919 4.4678
      vertex -2.25 9.89711 8
      vertex -1.39058 10.2798 8
    endloop
  endfacet
  facet normal -0.406736 0.913546 0
    outer loop
      vertex -1.39058 10.2798 8
      vertex -1.39058 10.2798 5.75561
      vertex -1.50554 10.2286 5.67208
    endloop
  endfacet
  facet normal -0.406736 0.913546 0
    outer loop
      vertex -1.39058 10.2798 8
      vertex -1.50554 10.2286 5.67208
      vertex -1.82029 10.0884 5.32252
    endloop
  endfacet
  facet normal -0.406736 0.913546 0
    outer loop
      vertex -2.20083 9.919 4.4678
      vertex -1.39058 10.2798 8
      vertex -2.05548 9.98372 4.91516
    endloop
  endfacet
  facet normal -0.406736 0.913546 0
    outer loop
      vertex -2.05548 9.98372 4.91516
      vertex -1.39058 10.2798 8
      vertex -1.82029 10.0884 5.32252
    endloop
  endfacet
  facet normal -0.207913 0.978147 0
    outer loop
      vertex -1.39058 10.2798 5.75561
      vertex -1.39058 10.2798 8
      vertex -1.125 10.3362 5.94856
    endloop
  endfacet
  facet normal -0.207913 0.978147 0
    outer loop
      vertex -1.125 10.3362 5.94856
      vertex -1.39058 10.2798 8
      vertex -0.470378 10.4753 8
    endloop
  endfacet
  facet normal -0.207913 0.978147 0
    outer loop
      vertex -0.695288 10.4275 6.13988
      vertex -0.470378 10.4753 8
      vertex -0.470378 10.4753 6.18768
    endloop
  endfacet
  facet normal -0.207913 0.978147 0
    outer loop
      vertex -1.125 10.3362 5.94856
      vertex -0.470378 10.4753 8
      vertex -0.695288 10.4275 6.13988
    endloop
  endfacet
  facet normal 1.22465e-16 1 0
    outer loop
      vertex -0.470378 10.4753 6.18768
      vertex -0.470378 10.4753 8
      vertex -0.235189 10.4753 6.23767
    endloop
  endfacet
  facet normal 1.22465e-16 1 0
    outer loop
      vertex -0.235189 10.4753 6.23767
      vertex -0.470378 10.4753 8
      vertex 0.470378 10.4753 8
    endloop
  endfacet
  facet normal 1.22465e-16 1 0
    outer loop
      vertex 0.235189 10.4753 6.23767
      vertex 0.470378 10.4753 8
      vertex 0.470378 10.4753 6.18768
    endloop
  endfacet
  facet normal 1.22465e-16 1 0
    outer loop
      vertex -0.235189 10.4753 6.23767
      vertex 0.470378 10.4753 8
      vertex 0.235189 10.4753 6.23767
    endloop
  endfacet
  facet normal 0.207913 0.978147 0
    outer loop
      vertex 0.470378 10.4753 6.18768
      vertex 0.470378 10.4753 8
      vertex 0.695288 10.4275 6.13988
    endloop
  endfacet
  facet normal 0.207913 0.978147 0
    outer loop
      vertex 0.695288 10.4275 6.13988
      vertex 0.470378 10.4753 8
      vertex 1.39058 10.2798 8
    endloop
  endfacet
  facet normal 0.207913 0.978147 0
    outer loop
      vertex 1.125 10.3362 5.94856
      vertex 1.39058 10.2798 8
      vertex 1.39058 10.2798 5.75561
    endloop
  endfacet
  facet normal 0.207913 0.978147 0
    outer loop
      vertex 0.695288 10.4275 6.13988
      vertex 1.39058 10.2798 8
      vertex 1.125 10.3362 5.94856
    endloop
  endfacet
  facet normal 0.406736 -0.913546 0
    outer loop
      vertex 2.05548 -9.98372 4.91516
      vertex 2.20083 -9.919 4.4678
      vertex 1.39058 -10.2798 8
    endloop
  endfacet
  facet normal 0.406736 -0.913546 0
    outer loop
      vertex 1.39058 -10.2798 8
      vertex 1.39058 -10.2798 5.75561
      vertex 1.50554 -10.2286 5.67208
    endloop
  endfacet
  facet normal 0.406736 -0.913546 0
    outer loop
      vertex 2.20083 -9.919 4.4678
      vertex 2.25 -9.89711 8
      vertex 1.39058 -10.2798 8
    endloop
  endfacet
  facet normal 0.406736 -0.913546 0
    outer loop
      vertex 1.82029 -10.0884 5.32252
      vertex 1.39058 -10.2798 8
      vertex 1.50554 -10.2286 5.67208
    endloop
  endfacet
  facet normal 0.406736 -0.913546 0
    outer loop
      vertex 1.82029 -10.0884 5.32252
      vertex 2.05548 -9.98372 4.91516
      vertex 1.39058 -10.2798 8
    endloop
  endfacet
  facet normal 0.406736 -0.913546 0
    outer loop
      vertex 2.25 -9.89711 4
      vertex 2.25 -9.89711 8
      vertex 2.20083 -9.919 4.4678
    endloop
  endfacet
  facet normal 0.207913 -0.978147 0
    outer loop
      vertex 0.470378 -10.4753 8
      vertex 0.470378 -10.4753 6.18768
      vertex 0.695288 -10.4275 6.13988
    endloop
  endfacet
  facet normal 0.207913 -0.978147 0
    outer loop
      vertex 1.125 -10.3362 5.94856
      vertex 0.470378 -10.4753 8
      vertex 0.695288 -10.4275 6.13988
    endloop
  endfacet
  facet normal 0.207913 -0.978147 0
    outer loop
      vertex 1.125 -10.3362 5.94856
      vertex 1.39058 -10.2798 5.75561
      vertex 0.470378 -10.4753 8
    endloop
  endfacet
  facet normal 0.207913 -0.978147 0
    outer loop
      vertex 1.39058 -10.2798 5.75561
      vertex 1.39058 -10.2798 8
      vertex 0.470378 -10.4753 8
    endloop
  endfacet
  facet normal 0 -1 0
    outer loop
      vertex -0.470378 -10.4753 8
      vertex -0.470378 -10.4753 6.18768
      vertex -0.235189 -10.4753 6.23767
    endloop
  endfacet
  facet normal 0 -1 0
    outer loop
      vertex 0.235189 -10.4753 6.23767
      vertex -0.470378 -10.4753 8
      vertex -0.235189 -10.4753 6.23767
    endloop
  endfacet
  facet normal 0 -1 0
    outer loop
      vertex 0.235189 -10.4753 6.23767
      vertex 0.470378 -10.4753 6.18768
      vertex -0.470378 -10.4753 8
    endloop
  endfacet
  facet normal 0 -1 0
    outer loop
      vertex 0.470378 -10.4753 6.18768
      vertex 0.470378 -10.4753 8
      vertex -0.470378 -10.4753 8
    endloop
  endfacet
  facet normal -0.207913 -0.978147 0
    outer loop
      vertex -1.39058 -10.2798 8
      vertex -1.39058 -10.2798 5.75561
      vertex -1.125 -10.3362 5.94856
    endloop
  endfacet
  facet normal -0.207913 -0.978147 0
    outer loop
      vertex -0.695288 -10.4275 6.13988
      vertex -1.39058 -10.2798 8
      vertex -1.125 -10.3362 5.94856
    endloop
  endfacet
  facet normal -0.207913 -0.978147 0
    outer loop
      vertex -0.695288 -10.4275 6.13988
      vertex -0.470378 -10.4753 6.18768
      vertex -1.39058 -10.2798 8
    endloop
  endfacet
  facet normal -0.207913 -0.978147 0
    outer loop
      vertex -0.470378 -10.4753 6.18768
      vertex -0.470378 -10.4753 8
      vertex -1.39058 -10.2798 8
    endloop
  endfacet
  facet normal -0.406736 -0.913546 0
    outer loop
      vertex -1.82029 -10.0884 5.32252
      vertex -1.50554 -10.2286 5.67208
      vertex -2.25 -9.89711 8
    endloop
  endfacet
  facet normal -0.406736 -0.913546 0
    outer loop
      vertex -2.25 -9.89711 8
      vertex -2.25 -9.89711 4
      vertex -2.20083 -9.919 4.4678
    endloop
  endfacet
  facet normal -0.406736 -0.913546 0
    outer loop
      vertex -1.50554 -10.2286 5.67208
      vertex -1.39058 -10.2798 5.75561
      vertex -2.25 -9.89711 8
    endloop
  endfacet
  facet normal -0.406736 -0.913546 0
    outer loop
      vertex -2.05548 -9.98372 4.91516
      vertex -2.25 -9.89711 8
      vertex -2.20083 -9.919 4.4678
    endloop
  endfacet
  facet normal -0.406736 -0.913546 0
    outer loop
      vertex -2.05548 -9.98372 4.91516
      vertex -1.82029 -10.0884 5.32252
      vertex -2.25 -9.89711 8
    endloop
  endfacet
  facet normal -0.406736 -0.913546 0
    outer loop
      vertex -1.39058 -10.2798 5.75561
      vertex -1.39058 -10.2798 8
      vertex -2.25 -9.89711 8
    endloop
  endfacet
  facet normal 0.951057 0.309017 0
    outer loop
      vertex -1.46722 5.68813 8
      vertex -1.37032 5.3899 8
      vertex -1.37032 5.3899 5.77032
    endloop
  endfacet
  facet normal 0.951057 0.309017 0
    outer loop
      vertex -1.46722 5.68813 5.69992
      vertex -1.46722 5.68813 8
      vertex -1.37032 5.3899 5.77032
    endloop
  endfacet
  facet normal 0.994522 0.10453 0
    outer loop
      vertex -1.5 6 8
      vertex -1.46722 5.68813 8
      vertex -1.46722 5.68813 5.69992
    endloop
  endfacet
  facet normal 0.994522 0.10453 0
    outer loop
      vertex -1.5 6 5.6761
      vertex -1.5 6 8
      vertex -1.46722 5.68813 5.69992
    endloop
  endfacet
  facet normal 0.866025 0.500001 0
    outer loop
      vertex -1.37032 5.3899 8
      vertex -1.21352 5.11832 8
      vertex -1.21352 5.11832 5.88424
    endloop
  endfacet
  facet normal 0.866025 0.500001 0
    outer loop
      vertex -1.37032 5.3899 5.77032
      vertex -1.37032 5.3899 8
      vertex -1.21352 5.11832 5.88424
    endloop
  endfacet
  facet normal 0.743145 0.66913 0
    outer loop
      vertex -1.21352 5.11832 8
      vertex -1.0037 4.88528 8
      vertex -1.0037 4.88528 6.00256
    endloop
  endfacet
  facet normal 0.743145 0.66913 0
    outer loop
      vertex -1.21352 5.11832 5.88424
      vertex -1.21352 5.11832 8
      vertex -1.125 5.02 5.94856
    endloop
  endfacet
  facet normal 0.743145 0.66913 0
    outer loop
      vertex -1.125 5.02 5.94856
      vertex -1.21352 5.11832 8
      vertex -1.0037 4.88528 6.00256
    endloop
  endfacet
  facet normal 0.587785 0.809017 0
    outer loop
      vertex -0.75 4.70096 8
      vertex -0.75 4.70096 6.11552
      vertex -1.0037 4.88528 8
    endloop
  endfacet
  facet normal 0.587785 0.809017 0
    outer loop
      vertex -1.0037 4.88528 8
      vertex -0.75 4.70096 6.11552
      vertex -1.0037 4.88528 6.00256
    endloop
  endfacet
  facet normal 0.406737 0.913545 0
    outer loop
      vertex -0.463525 4.57341 8
      vertex -0.463525 4.57341 6.18914
      vertex -0.75 4.70096 8
    endloop
  endfacet
  facet normal 0.406737 0.913545 0
    outer loop
      vertex -0.75 4.70096 8
      vertex -0.463525 4.57341 6.18914
      vertex -0.695288 4.6766 6.13988
    endloop
  endfacet
  facet normal 0.406737 0.913545 0
    outer loop
      vertex -0.75 4.70096 8
      vertex -0.695288 4.6766 6.13988
      vertex -0.75 4.70096 6.11552
    endloop
  endfacet
  facet normal 0.207912 0.978148 0
    outer loop
      vertex -0.156793 4.50822 8
      vertex -0.156793 4.50822 6.23767
      vertex -0.463525 4.57341 8
    endloop
  endfacet
  facet normal 0.207912 0.978148 0
    outer loop
      vertex -0.463525 4.57341 8
      vertex -0.156793 4.50822 6.23767
      vertex -0.235189 4.52488 6.23767
    endloop
  endfacet
  facet normal 0.207912 0.978148 0
    outer loop
      vertex -0.463525 4.57341 8
      vertex -0.235189 4.52488 6.23767
      vertex -0.463525 4.57341 6.18914
    endloop
  endfacet
  facet normal 1.22465e-16 1 0
    outer loop
      vertex 0.156793 4.50822 8
      vertex 0.156793 4.50822 6.23767
      vertex -0.156793 4.50822 8
    endloop
  endfacet
  facet normal 1.22465e-16 1 0
    outer loop
      vertex -0.156793 4.50822 8
      vertex 0.156793 4.50822 6.23767
      vertex -0.156793 4.50822 6.23767
    endloop
  endfacet
  facet normal -0.207912 0.978148 0
    outer loop
      vertex 0.463525 4.57341 8
      vertex 0.463525 4.57341 6.18914
      vertex 0.156793 4.50822 8
    endloop
  endfacet
  facet normal -0.207912 0.978148 0
    outer loop
      vertex 0.156793 4.50822 8
      vertex 0.463525 4.57341 6.18914
      vertex 0.235189 4.52488 6.23767
    endloop
  endfacet
  facet normal -0.207912 0.978148 0
    outer loop
      vertex 0.156793 4.50822 8
      vertex 0.235189 4.52488 6.23767
      vertex 0.156793 4.50822 6.23767
    endloop
  endfacet
  facet normal -0.406737 0.913545 0
    outer loop
      vertex 0.75 4.70096 8
      vertex 0.75 4.70096 6.11552
      vertex 0.463525 4.57341 8
    endloop
  endfacet
  facet normal -0.406737 0.913545 0
    outer loop
      vertex 0.463525 4.57341 8
      vertex 0.75 4.70096 6.11552
      vertex 0.695288 4.6766 6.13988
    endloop
  endfacet
  facet normal -0.406737 0.913545 0
    outer loop
      vertex 0.463525 4.57341 8
      vertex 0.695288 4.6766 6.13988
      vertex 0.463525 4.57341 6.18914
    endloop
  endfacet
  facet normal -0.587785 0.809017 0
    outer loop
      vertex 1.0037 4.88528 8
      vertex 1.0037 4.88528 6.00256
      vertex 0.75 4.70096 8
    endloop
  endfacet
  facet normal -0.587785 0.809017 0
    outer loop
      vertex 0.75 4.70096 8
      vertex 1.0037 4.88528 6.00256
      vertex 0.75 4.70096 6.11552
    endloop
  endfacet
  facet normal -0.743145 0.66913 0
    outer loop
      vertex 1.21352 5.11832 8
      vertex 1.21352 5.11832 5.88424
      vertex 1.0037 4.88528 8
    endloop
  endfacet
  facet normal -0.743145 0.66913 0
    outer loop
      vertex 1.0037 4.88528 8
      vertex 1.21352 5.11832 5.88424
      vertex 1.125 5.02 5.94856
    endloop
  endfacet
  facet normal -0.743145 0.66913 0
    outer loop
      vertex 1.0037 4.88528 8
      vertex 1.125 5.02 5.94856
      vertex 1.0037 4.88528 6.00256
    endloop
  endfacet
  facet normal -0.866025 0.500001 0
    outer loop
      vertex 1.37032 5.38989 8
      vertex 1.37032 5.38989 5.77032
      vertex 1.21352 5.11832 8
    endloop
  endfacet
  facet normal -0.866025 0.500001 0
    outer loop
      vertex 1.21352 5.11832 8
      vertex 1.37032 5.38989 5.77032
      vertex 1.21352 5.11832 5.88424
    endloop
  endfacet
  facet normal -0.951057 0.309017 0
    outer loop
      vertex 1.46722 5.68813 8
      vertex 1.46722 5.68813 5.69992
      vertex 1.37032 5.38989 8
    endloop
  endfacet
  facet normal -0.951057 0.309017 0
    outer loop
      vertex 1.37032 5.38989 8
      vertex 1.46722 5.68813 5.69992
      vertex 1.37032 5.38989 5.77032
    endloop
  endfacet
  facet normal -0.994522 0.10453 0
    outer loop
      vertex 1.5 6 8
      vertex 1.5 6 5.6761
      vertex 1.46722 5.68813 8
    endloop
  endfacet
  facet normal -0.994522 0.10453 0
    outer loop
      vertex 1.46722 5.68813 8
      vertex 1.5 6 5.6761
      vertex 1.46722 5.68813 5.69992
    endloop
  endfacet
  facet normal -0.994522 -0.10453 0
    outer loop
      vertex 1.5 6 8
      vertex 1.46722 6.31187 8
      vertex 1.5 6 5.6761
    endloop
  endfacet
  facet normal -0.994522 -0.10453 0
    outer loop
      vertex 1.5 6 5.6761
      vertex 1.46722 6.31187 8
      vertex 1.46722 6.31187 5.69992
    endloop
  endfacet
  facet normal -0.951057 -0.309017 0
    outer loop
      vertex 1.46722 6.31187 8
      vertex 1.37032 6.6101 8
      vertex 1.46722 6.31187 5.69992
    endloop
  endfacet
  facet normal -0.951057 -0.309017 0
    outer loop
      vertex 1.46722 6.31187 5.69992
      vertex 1.37032 6.6101 8
      vertex 1.37032 6.6101 5.77032
    endloop
  endfacet
  facet normal -0.866025 -0.500001 0
    outer loop
      vertex 1.37032 6.6101 8
      vertex 1.21352 6.88168 8
      vertex 1.37032 6.6101 5.77032
    endloop
  endfacet
  facet normal -0.866025 -0.500001 0
    outer loop
      vertex 1.37032 6.6101 5.77032
      vertex 1.21352 6.88168 8
      vertex 1.21352 6.88168 5.88424
    endloop
  endfacet
  facet normal -0.743145 -0.66913 0
    outer loop
      vertex 1.21352 6.88168 5.88424
      vertex 1.21352 6.88168 8
      vertex 1.125 6.98 5.94856
    endloop
  endfacet
  facet normal -0.743145 -0.66913 0
    outer loop
      vertex 1.125 6.98 5.94856
      vertex 1.21352 6.88168 8
      vertex 1.0037 7.11472 8
    endloop
  endfacet
  facet normal -0.743145 -0.66913 0
    outer loop
      vertex 1.125 6.98 5.94856
      vertex 1.0037 7.11472 8
      vertex 1.0037 7.11472 6.00256
    endloop
  endfacet
  facet normal -0.587785 -0.809017 0
    outer loop
      vertex 1.0037 7.11472 6.00256
      vertex 1.0037 7.11472 8
      vertex 0.75 7.29904 8
    endloop
  endfacet
  facet normal -0.587785 -0.809017 0
    outer loop
      vertex 0.75 7.29904 6.11552
      vertex 1.0037 7.11472 6.00256
      vertex 0.75 7.29904 8
    endloop
  endfacet
  facet normal -0.406737 -0.913545 0
    outer loop
      vertex 0.695288 7.3234 6.13988
      vertex 0.75 7.29904 6.11552
      vertex 0.75 7.29904 8
    endloop
  endfacet
  facet normal -0.406737 -0.913545 0
    outer loop
      vertex 0.463525 7.42658 6.18914
      vertex 0.695288 7.3234 6.13988
      vertex 0.463525 7.42658 8
    endloop
  endfacet
  facet normal -0.406737 -0.913545 0
    outer loop
      vertex 0.463525 7.42658 8
      vertex 0.695288 7.3234 6.13988
      vertex 0.75 7.29904 8
    endloop
  endfacet
  facet normal -0.207912 -0.978148 0
    outer loop
      vertex 0.235189 7.47512 6.23767
      vertex 0.463525 7.42658 6.18914
      vertex 0.463525 7.42658 8
    endloop
  endfacet
  facet normal -0.207912 -0.978148 0
    outer loop
      vertex 0.156793 7.49178 6.23767
      vertex 0.235189 7.47512 6.23767
      vertex 0.156793 7.49178 8
    endloop
  endfacet
  facet normal -0.207912 -0.978148 0
    outer loop
      vertex 0.156793 7.49178 8
      vertex 0.235189 7.47512 6.23767
      vertex 0.463525 7.42658 8
    endloop
  endfacet
  facet normal -1.22465e-16 -1 0
    outer loop
      vertex 0.156793 7.49178 6.23767
      vertex 0.156793 7.49178 8
      vertex -0.156793 7.49178 8
    endloop
  endfacet
  facet normal -1.22465e-16 -1 0
    outer loop
      vertex -0.156793 7.49178 6.23767
      vertex 0.156793 7.49178 6.23767
      vertex -0.156793 7.49178 8
    endloop
  endfacet
  facet normal 0.207912 -0.978148 0
    outer loop
      vertex -0.235189 7.47512 6.23767
      vertex -0.156793 7.49178 6.23767
      vertex -0.156793 7.49178 8
    endloop
  endfacet
  facet normal 0.207912 -0.978148 0
    outer loop
      vertex -0.463525 7.42658 6.18914
      vertex -0.235189 7.47512 6.23767
      vertex -0.463525 7.42658 8
    endloop
  endfacet
  facet normal 0.207912 -0.978148 0
    outer loop
      vertex -0.463525 7.42658 8
      vertex -0.235189 7.47512 6.23767
      vertex -0.156793 7.49178 8
    endloop
  endfacet
  facet normal 0.406737 -0.913545 0
    outer loop
      vertex -0.695288 7.3234 6.13988
      vertex -0.463525 7.42658 6.18914
      vertex -0.463525 7.42658 8
    endloop
  endfacet
  facet normal 0.406737 -0.913545 0
    outer loop
      vertex -0.75 7.29904 6.11552
      vertex -0.695288 7.3234 6.13988
      vertex -0.75 7.29904 8
    endloop
  endfacet
  facet normal 0.406737 -0.913545 0
    outer loop
      vertex -0.75 7.29904 8
      vertex -0.695288 7.3234 6.13988
      vertex -0.463525 7.42658 8
    endloop
  endfacet
  facet normal 0.587785 -0.809017 0
    outer loop
      vertex -0.75 7.29904 6.11552
      vertex -0.75 7.29904 8
      vertex -1.0037 7.11472 8
    endloop
  endfacet
  facet normal 0.587785 -0.809017 0
    outer loop
      vertex -1.0037 7.11472 6.00256
      vertex -0.75 7.29904 6.11552
      vertex -1.0037 7.11472 8
    endloop
  endfacet
  facet normal 0.743145 -0.66913 0
    outer loop
      vertex -1.125 6.98 5.94856
      vertex -1.0037 7.11472 6.00256
      vertex -1.0037 7.11472 8
    endloop
  endfacet
  facet normal 0.743145 -0.66913 0
    outer loop
      vertex -1.21352 6.88168 5.88424
      vertex -1.125 6.98 5.94856
      vertex -1.21352 6.88168 8
    endloop
  endfacet
  facet normal 0.743145 -0.66913 0
    outer loop
      vertex -1.21352 6.88168 8
      vertex -1.125 6.98 5.94856
      vertex -1.0037 7.11472 8
    endloop
  endfacet
  facet normal 0.866025 -0.500001 0
    outer loop
      vertex -1.21352 6.88168 5.88424
      vertex -1.21352 6.88168 8
      vertex -1.37032 6.6101 8
    endloop
  endfacet
  facet normal 0.866025 -0.500001 0
    outer loop
      vertex -1.37032 6.6101 5.77032
      vertex -1.21352 6.88168 5.88424
      vertex -1.37032 6.6101 8
    endloop
  endfacet
  facet normal 0.951057 -0.309017 0
    outer loop
      vertex -1.37032 6.6101 5.77032
      vertex -1.37032 6.6101 8
      vertex -1.46722 6.31187 8
    endloop
  endfacet
  facet normal 0.951057 -0.309017 0
    outer loop
      vertex -1.46722 6.31187 5.69992
      vertex -1.37032 6.6101 5.77032
      vertex -1.46722 6.31187 8
    endloop
  endfacet
  facet normal 0.994522 -0.10453 0
    outer loop
      vertex -1.46722 6.31187 5.69992
      vertex -1.46722 6.31187 8
      vertex -1.5 6 8
    endloop
  endfacet
  facet normal 0.994522 -0.10453 0
    outer loop
      vertex -1.5 6 5.6761
      vertex -1.46722 6.31187 5.69992
      vertex -1.5 6 8
    endloop
  endfacet
  facet normal 0.994522 -2.321e-17 -0.104529
    outer loop
      vertex -2.25 -9.89711 4
      vertex -2.25 9.89711 4
      vertex -2.20083 -9.919 4.4678
    endloop
  endfacet
  facet normal 0.994522 -2.321e-17 -0.104529
    outer loop
      vertex -2.20083 -9.919 4.4678
      vertex -2.25 9.89711 4
      vertex -2.20083 9.919 4.4678
    endloop
  endfacet
  facet normal 0.994522 2.321e-17 0.104529
    outer loop
      vertex -2.20083 -9.919 3.5322
      vertex -2.20083 9.919 3.5322
      vertex -2.25 9.89711 4
    endloop
  endfacet
  facet normal 0.994522 2.321e-17 0.104529
    outer loop
      vertex -2.25 -9.89711 4
      vertex -2.20083 -9.919 3.5322
      vertex -2.25 9.89711 4
    endloop
  endfacet
  facet normal 0.951056 6.86157e-17 0.309017
    outer loop
      vertex -2.05548 -9.98372 3.08484
      vertex -2.05548 9.98372 3.08484
      vertex -2.20083 9.919 3.5322
    endloop
  endfacet
  facet normal 0.951056 6.86157e-17 0.309017
    outer loop
      vertex -2.20083 -9.919 3.5322
      vertex -2.05548 -9.98372 3.08484
      vertex -2.20083 9.919 3.5322
    endloop
  endfacet
  facet normal 0.866026 1.11022e-16 0.499999
    outer loop
      vertex -1.82029 -10.0884 2.67748
      vertex -1.82029 10.0884 2.67748
      vertex -2.05548 9.98372 3.08484
    endloop
  endfacet
  facet normal 0.866026 1.11022e-16 0.499999
    outer loop
      vertex -2.05548 -9.98372 3.08484
      vertex -1.82029 -10.0884 2.67748
      vertex -2.05548 9.98372 3.08484
    endloop
  endfacet
  facet normal 0.743145 1.48577e-16 0.66913
    outer loop
      vertex -1.50554 -10.2286 2.32792
      vertex -1.50554 10.2286 2.32792
      vertex -1.82029 10.0884 2.67748
    endloop
  endfacet
  facet normal 0.743145 1.48577e-16 0.66913
    outer loop
      vertex -1.82029 -10.0884 2.67748
      vertex -1.50554 -10.2286 2.32792
      vertex -1.82029 10.0884 2.67748
    endloop
  endfacet
  facet normal 0.587785 1.79638e-16 0.809017
    outer loop
      vertex -1.39058 -10.2798 2.24439
      vertex -1.125 -10.3362 2.05144
      vertex -1.125 5.02 2.05144
    endloop
  endfacet
  facet normal 0.587785 1.79638e-16 0.809017
    outer loop
      vertex -1.37032 5.3899 2.22968
      vertex -1.39058 -10.2798 2.24439
      vertex -1.21352 5.11832 2.11576
    endloop
  endfacet
  facet normal 0.587785 1.79638e-16 0.809017
    outer loop
      vertex -1.21352 5.11832 2.11576
      vertex -1.39058 -10.2798 2.24439
      vertex -1.125 5.02 2.05144
    endloop
  endfacet
  facet normal 0.587785 1.79638e-16 0.809017
    outer loop
      vertex -1.46722 5.68813 2.30008
      vertex -1.39058 -10.2798 2.24439
      vertex -1.37032 5.3899 2.22968
    endloop
  endfacet
  facet normal 0.587785 1.79638e-16 0.809017
    outer loop
      vertex -1.5 6 2.3239
      vertex -1.39058 -10.2798 2.24439
      vertex -1.46722 5.68813 2.30008
    endloop
  endfacet
  facet normal 0.587785 1.79638e-16 0.809017
    outer loop
      vertex -1.50554 -10.2286 2.32792
      vertex -1.39058 -10.2798 2.24439
      vertex -1.5 6 2.3239
    endloop
  endfacet
  facet normal 0.587785 1.79638e-16 0.809017
    outer loop
      vertex -1.125 10.3362 2.05144
      vertex -1.5 6 2.3239
      vertex -1.46722 6.31187 2.30008
    endloop
  endfacet
  facet normal 0.587785 1.79638e-16 0.809017
    outer loop
      vertex -1.125 10.3362 2.05144
      vertex -1.46722 6.31187 2.30008
      vertex -1.37032 6.6101 2.22968
    endloop
  endfacet
  facet normal 0.587785 1.79638e-16 0.809017
    outer loop
      vertex -1.125 10.3362 2.05144
      vertex -1.37032 6.6101 2.22968
      vertex -1.21352 6.88168 2.11576
    endloop
  endfacet
  facet normal 0.587785 1.79638e-16 0.809017
    outer loop
      vertex -1.125 10.3362 2.05144
      vertex -1.21352 6.88168 2.11576
      vertex -1.125 6.98 2.05144
    endloop
  endfacet
  facet normal 0.587785 1.79638e-16 0.809017
    outer loop
      vertex -1.39058 10.2798 2.24439
      vertex -1.5 6 2.3239
      vertex -1.125 10.3362 2.05144
    endloop
  endfacet
  facet normal 0.587785 1.79638e-16 0.809017
    outer loop
      vertex -1.50554 10.2286 2.32792
      vertex -1.5 6 2.3239
      vertex -1.39058 10.2798 2.24439
    endloop
  endfacet
  facet normal 0.587785 1.79638e-16 0.809017
    outer loop
      vertex -1.50554 -10.2286 2.32792
      vertex -1.5 6 2.3239
      vertex -1.50554 10.2286 2.32792
    endloop
  endfacet
  facet normal 0.406736 2.02848e-16 0.913546
    outer loop
      vertex -0.695288 -10.4275 1.86012
      vertex -0.695288 4.6766 1.86012
      vertex -0.75 4.70096 1.88448
    endloop
  endfacet
  facet normal 0.406736 2.02848e-16 0.913546
    outer loop
      vertex -1.0037 4.88528 1.99744
      vertex -0.695288 -10.4275 1.86012
      vertex -0.75 4.70096 1.88448
    endloop
  endfacet
  facet normal 0.406736 2.02848e-16 0.913546
    outer loop
      vertex -1.0037 4.88528 1.99744
      vertex -1.125 5.02 2.05144
      vertex -0.695288 -10.4275 1.86012
    endloop
  endfacet
  facet normal 0.406736 2.02848e-16 0.913546
    outer loop
      vertex -1.125 5.02 2.05144
      vertex -1.125 -10.3362 2.05144
      vertex -0.695288 -10.4275 1.86012
    endloop
  endfacet
  facet normal 0.207912 2.17192e-16 0.978148
    outer loop
      vertex -0.470378 -10.4753 1.81232
      vertex -0.235189 -10.4753 1.76233
      vertex -0.235189 4.52488 1.76233
    endloop
  endfacet
  facet normal 0.207912 2.17192e-16 0.978148
    outer loop
      vertex -0.695288 4.6766 1.86012
      vertex -0.470378 -10.4753 1.81232
      vertex -0.463525 4.57341 1.81086
    endloop
  endfacet
  facet normal 0.207912 2.17192e-16 0.978148
    outer loop
      vertex -0.463525 4.57341 1.81086
      vertex -0.470378 -10.4753 1.81232
      vertex -0.235189 4.52488 1.76233
    endloop
  endfacet
  facet normal 0.207912 2.17192e-16 0.978148
    outer loop
      vertex -0.695288 -10.4275 1.86012
      vertex -0.470378 -10.4753 1.81232
      vertex -0.695288 4.6766 1.86012
    endloop
  endfacet
  facet normal 0 2.22045e-16 1
    outer loop
      vertex 0.235189 -10.4753 1.76233
      vertex 0.235189 4.52488 1.76233
      vertex 0.156793 4.50822 1.76233
    endloop
  endfacet
  facet normal 0 2.22045e-16 1
    outer loop
      vertex -0.156793 4.50822 1.76233
      vertex 0.235189 -10.4753 1.76233
      vertex 0.156793 4.50822 1.76233
    endloop
  endfacet
  facet normal 0 2.22045e-16 1
    outer loop
      vertex -0.156793 4.50822 1.76233
      vertex -0.235189 4.52488 1.76233
      vertex 0.235189 -10.4753 1.76233
    endloop
  endfacet
  facet normal 0 2.22045e-16 1
    outer loop
      vertex -0.235189 4.52488 1.76233
      vertex -0.235189 -10.4753 1.76233
      vertex 0.235189 -10.4753 1.76233
    endloop
  endfacet
  facet normal -0.207912 2.17192e-16 0.978148
    outer loop
      vertex 0.470378 -10.4753 1.81232
      vertex 0.695288 -10.4275 1.86012
      vertex 0.695288 4.6766 1.86012
    endloop
  endfacet
  facet normal -0.207912 2.17192e-16 0.978148
    outer loop
      vertex 0.235189 4.52488 1.76233
      vertex 0.470378 -10.4753 1.81232
      vertex 0.463525 4.57341 1.81086
    endloop
  endfacet
  facet normal -0.207912 2.17192e-16 0.978148
    outer loop
      vertex 0.463525 4.57341 1.81086
      vertex 0.470378 -10.4753 1.81232
      vertex 0.695288 4.6766 1.86012
    endloop
  endfacet
  facet normal -0.207912 2.17192e-16 0.978148
    outer loop
      vertex 0.235189 -10.4753 1.76233
      vertex 0.470378 -10.4753 1.81232
      vertex 0.235189 4.52488 1.76233
    endloop
  endfacet
  facet normal -0.406736 2.02848e-16 0.913546
    outer loop
      vertex 1.125 -10.3362 2.05144
      vertex 1.125 5.02 2.05144
      vertex 1.0037 4.88528 1.99744
    endloop
  endfacet
  facet normal -0.406736 2.02848e-16 0.913546
    outer loop
      vertex 0.75 4.70096 1.88448
      vertex 1.125 -10.3362 2.05144
      vertex 1.0037 4.88528 1.99744
    endloop
  endfacet
  facet normal -0.406736 2.02848e-16 0.913546
    outer loop
      vertex 0.75 4.70096 1.88448
      vertex 0.695288 4.6766 1.86012
      vertex 1.125 -10.3362 2.05144
    endloop
  endfacet
  facet normal -0.406736 2.02848e-16 0.913546
    outer loop
      vertex 0.695288 4.6766 1.86012
      vertex 0.695288 -10.4275 1.86012
      vertex 1.125 -10.3362 2.05144
    endloop
  endfacet
  facet normal -0.587785 1.79638e-16 0.809017
    outer loop
      vertex 1.5 6 2.3239
      vertex 1.50554 -10.2286 2.32792
      vertex 1.50554 10.2286 2.32792
    endloop
  endfacet
  facet normal -0.587785 1.79638e-16 0.809017
    outer loop
      vertex 1.46722 6.31187 2.30008
      vertex 1.5 6 2.3239
      vertex 1.50554 10.2286 2.32792
    endloop
  endfacet
  facet normal -0.587785 1.79638e-16 0.809017
    outer loop
      vertex 1.125 10.3362 2.05144
      vertex 1.21352 6.88168 2.11576
      vertex 1.39058 10.2798 2.24439
    endloop
  endfacet
  facet normal -0.587785 1.79638e-16 0.809017
    outer loop
      vertex 1.21352 6.88168 2.11576
      vertex 1.37032 6.6101 2.22968
      vertex 1.39058 10.2798 2.24439
    endloop
  endfacet
  facet normal -0.587785 1.79638e-16 0.809017
    outer loop
      vertex 1.39058 10.2798 2.24439
      vertex 1.46722 6.31187 2.30008
      vertex 1.50554 10.2286 2.32792
    endloop
  endfacet
  facet normal -0.587785 1.79638e-16 0.809017
    outer loop
      vertex 1.5 6 2.3239
      vertex 1.46722 5.68813 2.30008
      vertex 1.39058 -10.2798 2.24439
    endloop
  endfacet
  facet normal -0.587785 1.79638e-16 0.809017
    outer loop
      vertex 1.39058 -10.2798 2.24439
      vertex 1.50554 -10.2286 2.32792
      vertex 1.5 6 2.3239
    endloop
  endfacet
  facet normal -0.587785 1.79638e-16 0.809017
    outer loop
      vertex 1.46722 5.68813 2.30008
      vertex 1.37032 5.38989 2.22968
      vertex 1.39058 -10.2798 2.24439
    endloop
  endfacet
  facet normal -0.587785 1.79638e-16 0.809017
    outer loop
      vertex 1.21352 5.11832 2.11576
      vertex 1.125 5.02 2.05144
      vertex 1.39058 -10.2798 2.24439
    endloop
  endfacet
  facet normal -0.587785 1.79638e-16 0.809017
    outer loop
      vertex 1.37032 5.38989 2.22968
      vertex 1.21352 5.11832 2.11576
      vertex 1.39058 -10.2798 2.24439
    endloop
  endfacet
  facet normal -0.587785 1.79638e-16 0.809017
    outer loop
      vertex 1.37032 6.6101 2.22968
      vertex 1.46722 6.31187 2.30008
      vertex 1.39058 10.2798 2.24439
    endloop
  endfacet
  facet normal -0.587785 1.79638e-16 0.809017
    outer loop
      vertex 1.125 -10.3362 2.05144
      vertex 1.39058 -10.2798 2.24439
      vertex 1.125 5.02 2.05144
    endloop
  endfacet
  facet normal -0.587785 1.79638e-16 0.809017
    outer loop
      vertex 1.125 6.98 2.05144
      vertex 1.21352 6.88168 2.11576
      vertex 1.125 10.3362 2.05144
    endloop
  endfacet
  facet normal -0.743145 1.48577e-16 0.66913
    outer loop
      vertex 1.82029 10.0884 2.67748
      vertex 1.50554 10.2286 2.32792
      vertex 1.82029 -10.0884 2.67748
    endloop
  endfacet
  facet normal -0.743145 1.48577e-16 0.66913
    outer loop
      vertex 1.82029 -10.0884 2.67748
      vertex 1.50554 10.2286 2.32792
      vertex 1.50554 -10.2286 2.32792
    endloop
  endfacet
  facet normal -0.866026 1.11022e-16 0.499999
    outer loop
      vertex 2.05548 9.98372 3.08484
      vertex 1.82029 10.0884 2.67748
      vertex 2.05548 -9.98372 3.08484
    endloop
  endfacet
  facet normal -0.866026 1.11022e-16 0.499999
    outer loop
      vertex 2.05548 -9.98372 3.08484
      vertex 1.82029 10.0884 2.67748
      vertex 1.82029 -10.0884 2.67748
    endloop
  endfacet
  facet normal -0.951056 6.86157e-17 0.309017
    outer loop
      vertex 2.20083 9.919 3.5322
      vertex 2.05548 9.98372 3.08484
      vertex 2.20083 -9.919 3.5322
    endloop
  endfacet
  facet normal -0.951056 6.86157e-17 0.309017
    outer loop
      vertex 2.20083 -9.919 3.5322
      vertex 2.05548 9.98372 3.08484
      vertex 2.05548 -9.98372 3.08484
    endloop
  endfacet
  facet normal -0.994522 2.321e-17 0.104529
    outer loop
      vertex 2.25 9.89711 4
      vertex 2.20083 9.919 3.5322
      vertex 2.25 -9.89711 4
    endloop
  endfacet
  facet normal -0.994522 2.321e-17 0.104529
    outer loop
      vertex 2.25 -9.89711 4
      vertex 2.20083 9.919 3.5322
      vertex 2.20083 -9.919 3.5322
    endloop
  endfacet
  facet normal -0.994522 -2.321e-17 -0.104529
    outer loop
      vertex 2.25 9.89711 4
      vertex 2.25 -9.89711 4
      vertex 2.20083 9.919 4.4678
    endloop
  endfacet
  facet normal -0.994522 -2.321e-17 -0.104529
    outer loop
      vertex 2.20083 9.919 4.4678
      vertex 2.25 -9.89711 4
      vertex 2.20083 -9.919 4.4678
    endloop
  endfacet
  facet normal -0.587785 -1.79638e-16 -0.809017
    outer loop
      vertex 1.21352 5.11832 5.88424
      vertex 1.50554 -10.2286 5.67208
      vertex 1.125 5.02 5.94856
    endloop
  endfacet
  facet normal -0.587785 -1.79638e-16 -0.809017
    outer loop
      vertex 1.21352 5.11832 5.88424
      vertex 1.37032 5.38989 5.77032
      vertex 1.50554 -10.2286 5.67208
    endloop
  endfacet
  facet normal -0.587785 -1.79638e-16 -0.809017
    outer loop
      vertex 1.50554 -10.2286 5.67208
      vertex 1.46722 5.68813 5.69992
      vertex 1.5 6 5.6761
    endloop
  endfacet
  facet normal -0.587785 -1.79638e-16 -0.809017
    outer loop
      vertex 1.39058 10.2798 5.75561
      vertex 1.5 6 5.6761
      vertex 1.125 10.3362 5.94856
    endloop
  endfacet
  facet normal -0.587785 -1.79638e-16 -0.809017
    outer loop
      vertex 1.5 6 5.6761
      vertex 1.46722 6.31187 5.69992
      vertex 1.125 10.3362 5.94856
    endloop
  endfacet
  facet normal -0.587785 -1.79638e-16 -0.809017
    outer loop
      vertex 1.46722 6.31187 5.69992
      vertex 1.37032 6.6101 5.77032
      vertex 1.125 10.3362 5.94856
    endloop
  endfacet
  facet normal -0.587785 -1.79638e-16 -0.809017
    outer loop
      vertex 1.125 10.3362 5.94856
      vertex 1.21352 6.88168 5.88424
      vertex 1.125 6.98 5.94856
    endloop
  endfacet
  facet normal -0.587785 -1.79638e-16 -0.809017
    outer loop
      vertex 1.37032 6.6101 5.77032
      vertex 1.21352 6.88168 5.88424
      vertex 1.125 10.3362 5.94856
    endloop
  endfacet
  facet normal -0.587785 -1.79638e-16 -0.809017
    outer loop
      vertex 1.50554 10.2286 5.67208
      vertex 1.5 6 5.6761
      vertex 1.39058 10.2798 5.75561
    endloop
  endfacet
  facet normal -0.587785 -1.79638e-16 -0.809017
    outer loop
      vertex 1.50554 -10.2286 5.67208
      vertex 1.5 6 5.6761
      vertex 1.50554 10.2286 5.67208
    endloop
  endfacet
  facet normal -0.587785 -1.79638e-16 -0.809017
    outer loop
      vertex 1.37032 5.38989 5.77032
      vertex 1.46722 5.68813 5.69992
      vertex 1.50554 -10.2286 5.67208
    endloop
  endfacet
  facet normal -0.587785 -1.79638e-16 -0.809017
    outer loop
      vertex 1.50554 -10.2286 5.67208
      vertex 1.39058 -10.2798 5.75561
      vertex 1.125 5.02 5.94856
    endloop
  endfacet
  facet normal -0.587785 -1.79638e-16 -0.809017
    outer loop
      vertex 1.39058 -10.2798 5.75561
      vertex 1.125 -10.3362 5.94856
      vertex 1.125 5.02 5.94856
    endloop
  endfacet
  facet normal -0.743145 -1.48577e-16 -0.66913
    outer loop
      vertex 1.82029 10.0884 5.32252
      vertex 1.82029 -10.0884 5.32252
      vertex 1.50554 10.2286 5.67208
    endloop
  endfacet
  facet normal -0.743145 -1.48577e-16 -0.66913
    outer loop
      vertex 1.50554 10.2286 5.67208
      vertex 1.82029 -10.0884 5.32252
      vertex 1.50554 -10.2286 5.67208
    endloop
  endfacet
  facet normal -0.866026 -1.11022e-16 -0.499999
    outer loop
      vertex 2.05548 9.98372 4.91516
      vertex 2.05548 -9.98372 4.91516
      vertex 1.82029 10.0884 5.32252
    endloop
  endfacet
  facet normal -0.866026 -1.11022e-16 -0.499999
    outer loop
      vertex 1.82029 10.0884 5.32252
      vertex 2.05548 -9.98372 4.91516
      vertex 1.82029 -10.0884 5.32252
    endloop
  endfacet
  facet normal -0.951056 -6.86157e-17 -0.309017
    outer loop
      vertex 2.20083 9.919 4.4678
      vertex 2.20083 -9.919 4.4678
      vertex 2.05548 9.98372 4.91516
    endloop
  endfacet
  facet normal -0.951056 -6.86157e-17 -0.309017
    outer loop
      vertex 2.05548 9.98372 4.91516
      vertex 2.20083 -9.919 4.4678
      vertex 2.05548 -9.98372 4.91516
    endloop
  endfacet
  facet normal -0.406736 2.02848e-16 0.913546
    outer loop
      vertex 0.75 7.29904 1.88448
      vertex 1.0037 7.11472 1.99744
      vertex 1.125 10.3362 2.05144
    endloop
  endfacet
  facet normal -0.406736 2.02848e-16 0.913546
    outer loop
      vertex 1.125 10.3362 2.05144
      vertex 1.0037 7.11472 1.99744
      vertex 1.125 6.98 2.05144
    endloop
  endfacet
  facet normal -0.406736 2.02848e-16 0.913546
    outer loop
      vertex 0.75 7.29904 1.88448
      vertex 1.125 10.3362 2.05144
      vertex 0.695288 10.4275 1.86012
    endloop
  endfacet
  facet normal -0.406736 2.02848e-16 0.913546
    outer loop
      vertex 0.75 7.29904 1.88448
      vertex 0.695288 10.4275 1.86012
      vertex 0.695288 7.3234 1.86012
    endloop
  endfacet
  facet normal -0.207912 2.17192e-16 0.978148
    outer loop
      vertex 0.463525 7.42658 1.81086
      vertex 0.695288 7.3234 1.86012
      vertex 0.695288 10.4275 1.86012
    endloop
  endfacet
  facet normal -0.207912 2.17192e-16 0.978148
    outer loop
      vertex 0.235189 10.4753 1.76233
      vertex 0.463525 7.42658 1.81086
      vertex 0.470378 10.4753 1.81232
    endloop
  endfacet
  facet normal -0.207912 2.17192e-16 0.978148
    outer loop
      vertex 0.470378 10.4753 1.81232
      vertex 0.463525 7.42658 1.81086
      vertex 0.695288 10.4275 1.86012
    endloop
  endfacet
  facet normal -0.207912 2.17192e-16 0.978148
    outer loop
      vertex 0.235189 7.47512 1.76233
      vertex 0.463525 7.42658 1.81086
      vertex 0.235189 10.4753 1.76233
    endloop
  endfacet
  facet normal 0 2.22045e-16 1
    outer loop
      vertex -0.156793 7.49178 1.76233
      vertex 0.156793 7.49178 1.76233
      vertex 0.235189 10.4753 1.76233
    endloop
  endfacet
  facet normal 0 2.22045e-16 1
    outer loop
      vertex 0.235189 10.4753 1.76233
      vertex 0.156793 7.49178 1.76233
      vertex 0.235189 7.47512 1.76233
    endloop
  endfacet
  facet normal 0 2.22045e-16 1
    outer loop
      vertex -0.156793 7.49178 1.76233
      vertex 0.235189 10.4753 1.76233
      vertex -0.235189 10.4753 1.76233
    endloop
  endfacet
  facet normal 0 2.22045e-16 1
    outer loop
      vertex -0.156793 7.49178 1.76233
      vertex -0.235189 10.4753 1.76233
      vertex -0.235189 7.47512 1.76233
    endloop
  endfacet
  facet normal 0.207912 2.17192e-16 0.978148
    outer loop
      vertex -0.463525 7.42658 1.81086
      vertex -0.235189 7.47512 1.76233
      vertex -0.235189 10.4753 1.76233
    endloop
  endfacet
  facet normal 0.207912 2.17192e-16 0.978148
    outer loop
      vertex -0.695288 10.4275 1.86012
      vertex -0.463525 7.42658 1.81086
      vertex -0.470378 10.4753 1.81232
    endloop
  endfacet
  facet normal 0.207912 2.17192e-16 0.978148
    outer loop
      vertex -0.470378 10.4753 1.81232
      vertex -0.463525 7.42658 1.81086
      vertex -0.235189 10.4753 1.76233
    endloop
  endfacet
  facet normal 0.207912 2.17192e-16 0.978148
    outer loop
      vertex -0.695288 7.3234 1.86012
      vertex -0.463525 7.42658 1.81086
      vertex -0.695288 10.4275 1.86012
    endloop
  endfacet
  facet normal 0.406736 2.02848e-16 0.913546
    outer loop
      vertex -1.0037 7.11472 1.99744
      vertex -0.75 7.29904 1.88448
      vertex -0.695288 10.4275 1.86012
    endloop
  endfacet
  facet normal 0.406736 2.02848e-16 0.913546
    outer loop
      vertex -0.695288 10.4275 1.86012
      vertex -0.75 7.29904 1.88448
      vertex -0.695288 7.3234 1.86012
    endloop
  endfacet
  facet normal 0.406736 2.02848e-16 0.913546
    outer loop
      vertex -1.0037 7.11472 1.99744
      vertex -0.695288 10.4275 1.86012
      vertex -1.125 10.3362 2.05144
    endloop
  endfacet
  facet normal 0.406736 2.02848e-16 0.913546
    outer loop
      vertex -1.0037 7.11472 1.99744
      vertex -1.125 10.3362 2.05144
      vertex -1.125 6.98 2.05144
    endloop
  endfacet
  facet normal 0.951056 -6.86157e-17 -0.309017
    outer loop
      vertex -2.20083 9.919 4.4678
      vertex -2.05548 9.98372 4.91516
      vertex -2.05548 -9.98372 4.91516
    endloop
  endfacet
  facet normal 0.951056 -6.86157e-17 -0.309017
    outer loop
      vertex -2.20083 -9.919 4.4678
      vertex -2.20083 9.919 4.4678
      vertex -2.05548 -9.98372 4.91516
    endloop
  endfacet
  facet normal 0.866026 -1.11022e-16 -0.499999
    outer loop
      vertex -2.05548 9.98372 4.91516
      vertex -1.82029 10.0884 5.32252
      vertex -1.82029 -10.0884 5.32252
    endloop
  endfacet
  facet normal 0.866026 -1.11022e-16 -0.499999
    outer loop
      vertex -2.05548 -9.98372 4.91516
      vertex -2.05548 9.98372 4.91516
      vertex -1.82029 -10.0884 5.32252
    endloop
  endfacet
  facet normal 0.743145 -1.48577e-16 -0.66913
    outer loop
      vertex -1.82029 10.0884 5.32252
      vertex -1.50554 10.2286 5.67208
      vertex -1.50554 -10.2286 5.67208
    endloop
  endfacet
  facet normal 0.743145 -1.48577e-16 -0.66913
    outer loop
      vertex -1.82029 -10.0884 5.32252
      vertex -1.82029 10.0884 5.32252
      vertex -1.50554 -10.2286 5.67208
    endloop
  endfacet
  facet normal 0.587785 -1.79638e-16 -0.809017
    outer loop
      vertex -1.39058 10.2798 5.75561
      vertex -1.125 10.3362 5.94856
      vertex -1.50554 10.2286 5.67208
    endloop
  endfacet
  facet normal 0.587785 -1.79638e-16 -0.809017
    outer loop
      vertex -1.50554 10.2286 5.67208
      vertex -1.125 10.3362 5.94856
      vertex -1.125 6.98 5.94856
    endloop
  endfacet
  facet normal 0.587785 -1.79638e-16 -0.809017
    outer loop
      vertex -1.50554 10.2286 5.67208
      vertex -1.125 6.98 5.94856
      vertex -1.21352 6.88168 5.88424
    endloop
  endfacet
  facet normal 0.587785 -1.79638e-16 -0.809017
    outer loop
      vertex -1.50554 10.2286 5.67208
      vertex -1.21352 6.88168 5.88424
      vertex -1.37032 6.6101 5.77032
    endloop
  endfacet
  facet normal 0.587785 -1.79638e-16 -0.809017
    outer loop
      vertex -1.37032 6.6101 5.77032
      vertex -1.46722 6.31187 5.69992
      vertex -1.50554 10.2286 5.67208
    endloop
  endfacet
  facet normal 0.587785 -1.79638e-16 -0.809017
    outer loop
      vertex -1.46722 6.31187 5.69992
      vertex -1.5 6 5.6761
      vertex -1.50554 10.2286 5.67208
    endloop
  endfacet
  facet normal 0.587785 -1.79638e-16 -0.809017
    outer loop
      vertex -1.46722 5.68813 5.69992
      vertex -1.125 -10.3362 5.94856
      vertex -1.5 6 5.6761
    endloop
  endfacet
  facet normal 0.587785 -1.79638e-16 -0.809017
    outer loop
      vertex -1.37032 5.3899 5.77032
      vertex -1.125 -10.3362 5.94856
      vertex -1.46722 5.68813 5.69992
    endloop
  endfacet
  facet normal 0.587785 -1.79638e-16 -0.809017
    outer loop
      vertex -1.21352 5.11832 5.88424
      vertex -1.125 5.02 5.94856
      vertex -1.125 -10.3362 5.94856
    endloop
  endfacet
  facet normal 0.587785 -1.79638e-16 -0.809017
    outer loop
      vertex -1.21352 5.11832 5.88424
      vertex -1.125 -10.3362 5.94856
      vertex -1.37032 5.3899 5.77032
    endloop
  endfacet
  facet normal 0.587785 -1.79638e-16 -0.809017
    outer loop
      vertex -1.5 6 5.6761
      vertex -1.125 -10.3362 5.94856
      vertex -1.39058 -10.2798 5.75561
    endloop
  endfacet
  facet normal 0.587785 -1.79638e-16 -0.809017
    outer loop
      vertex -1.5 6 5.6761
      vertex -1.39058 -10.2798 5.75561
      vertex -1.50554 -10.2286 5.67208
    endloop
  endfacet
  facet normal 0.587785 -1.79638e-16 -0.809017
    outer loop
      vertex -1.5 6 5.6761
      vertex -1.50554 -10.2286 5.67208
      vertex -1.50554 10.2286 5.67208
    endloop
  endfacet
  facet normal 0.406736 -2.02848e-16 -0.913546
    outer loop
      vertex -0.695288 10.4275 6.13988
      vertex -0.695288 7.3234 6.13988
      vertex -1.125 10.3362 5.94856
    endloop
  endfacet
  facet normal 0.406736 -2.02848e-16 -0.913546
    outer loop
      vertex -1.125 10.3362 5.94856
      vertex -0.695288 7.3234 6.13988
      vertex -0.75 7.29904 6.11552
    endloop
  endfacet
  facet normal 0.406736 -2.02848e-16 -0.913546
    outer loop
      vertex -1.125 10.3362 5.94856
      vertex -0.75 7.29904 6.11552
      vertex -1.0037 7.11472 6.00256
    endloop
  endfacet
  facet normal 0.406736 -2.02848e-16 -0.913546
    outer loop
      vertex -1.0037 7.11472 6.00256
      vertex -1.125 6.98 5.94856
      vertex -1.125 10.3362 5.94856
    endloop
  endfacet
  facet normal 0.207912 -2.17192e-16 -0.978148
    outer loop
      vertex -0.470378 10.4753 6.18768
      vertex -0.235189 10.4753 6.23767
      vertex -0.695288 10.4275 6.13988
    endloop
  endfacet
  facet normal 0.207912 -2.17192e-16 -0.978148
    outer loop
      vertex -0.695288 10.4275 6.13988
      vertex -0.235189 10.4753 6.23767
      vertex -0.235189 7.47512 6.23767
    endloop
  endfacet
  facet normal 0.207912 -2.17192e-16 -0.978148
    outer loop
      vertex -0.695288 10.4275 6.13988
      vertex -0.235189 7.47512 6.23767
      vertex -0.463525 7.42658 6.18914
    endloop
  endfacet
  facet normal 0.207912 -2.17192e-16 -0.978148
    outer loop
      vertex -0.695288 10.4275 6.13988
      vertex -0.463525 7.42658 6.18914
      vertex -0.695288 7.3234 6.13988
    endloop
  endfacet
  facet normal 0 -2.22045e-16 -1
    outer loop
      vertex 0.235189 10.4753 6.23767
      vertex 0.235189 7.47512 6.23767
      vertex -0.235189 10.4753 6.23767
    endloop
  endfacet
  facet normal 0 -2.22045e-16 -1
    outer loop
      vertex -0.235189 10.4753 6.23767
      vertex 0.235189 7.47512 6.23767
      vertex 0.156793 7.49178 6.23767
    endloop
  endfacet
  facet normal 0 -2.22045e-16 -1
    outer loop
      vertex -0.235189 10.4753 6.23767
      vertex 0.156793 7.49178 6.23767
      vertex -0.156793 7.49178 6.23767
    endloop
  endfacet
  facet normal 0 -2.22045e-16 -1
    outer loop
      vertex -0.156793 7.49178 6.23767
      vertex -0.235189 7.47512 6.23767
      vertex -0.235189 10.4753 6.23767
    endloop
  endfacet
  facet normal -0.207912 -2.17192e-16 -0.978148
    outer loop
      vertex 0.470378 10.4753 6.18768
      vertex 0.695288 10.4275 6.13988
      vertex 0.235189 10.4753 6.23767
    endloop
  endfacet
  facet normal -0.207912 -2.17192e-16 -0.978148
    outer loop
      vertex 0.235189 10.4753 6.23767
      vertex 0.695288 10.4275 6.13988
      vertex 0.695288 7.3234 6.13988
    endloop
  endfacet
  facet normal -0.207912 -2.17192e-16 -0.978148
    outer loop
      vertex 0.235189 10.4753 6.23767
      vertex 0.695288 7.3234 6.13988
      vertex 0.463525 7.42658 6.18914
    endloop
  endfacet
  facet normal -0.207912 -2.17192e-16 -0.978148
    outer loop
      vertex 0.235189 10.4753 6.23767
      vertex 0.463525 7.42658 6.18914
      vertex 0.235189 7.47512 6.23767
    endloop
  endfacet
  facet normal -0.406736 -2.02848e-16 -0.913546
    outer loop
      vertex 1.125 10.3362 5.94856
      vertex 1.125 6.98 5.94856
      vertex 0.695288 10.4275 6.13988
    endloop
  endfacet
  facet normal -0.406736 -2.02848e-16 -0.913546
    outer loop
      vertex 0.695288 10.4275 6.13988
      vertex 1.125 6.98 5.94856
      vertex 1.0037 7.11472 6.00256
    endloop
  endfacet
  facet normal -0.406736 -2.02848e-16 -0.913546
    outer loop
      vertex 0.695288 10.4275 6.13988
      vertex 1.0037 7.11472 6.00256
      vertex 0.75 7.29904 6.11552
    endloop
  endfacet
  facet normal -0.406736 -2.02848e-16 -0.913546
    outer loop
      vertex 0.75 7.29904 6.11552
      vertex 0.695288 7.3234 6.13988
      vertex 0.695288 10.4275 6.13988
    endloop
  endfacet
  facet normal -0.406736 -2.02848e-16 -0.913546
    outer loop
      vertex 1.125 -10.3362 5.94856
      vertex 1.0037 4.88528 6.00256
      vertex 1.125 5.02 5.94856
    endloop
  endfacet
  facet normal -0.406736 -2.02848e-16 -0.913546
    outer loop
      vertex 0.75 4.70096 6.11552
      vertex 1.0037 4.88528 6.00256
      vertex 1.125 -10.3362 5.94856
    endloop
  endfacet
  facet normal -0.406736 -2.02848e-16 -0.913546
    outer loop
      vertex 0.75 4.70096 6.11552
      vertex 1.125 -10.3362 5.94856
      vertex 0.695288 4.6766 6.13988
    endloop
  endfacet
  facet normal -0.406736 -2.02848e-16 -0.913546
    outer loop
      vertex 1.125 -10.3362 5.94856
      vertex 0.695288 -10.4275 6.13988
      vertex 0.695288 4.6766 6.13988
    endloop
  endfacet
  facet normal -0.207912 -2.17192e-16 -0.978148
    outer loop
      vertex 0.463525 4.57341 6.18914
      vertex 0.695288 4.6766 6.13988
      vertex 0.695288 -10.4275 6.13988
    endloop
  endfacet
  facet normal -0.207912 -2.17192e-16 -0.978148
    outer loop
      vertex 0.463525 4.57341 6.18914
      vertex 0.695288 -10.4275 6.13988
      vertex 0.235189 4.52488 6.23767
    endloop
  endfacet
  facet normal -0.207912 -2.17192e-16 -0.978148
    outer loop
      vertex 0.695288 -10.4275 6.13988
      vertex 0.470378 -10.4753 6.18768
      vertex 0.235189 4.52488 6.23767
    endloop
  endfacet
  facet normal -0.207912 -2.17192e-16 -0.978148
    outer loop
      vertex 0.470378 -10.4753 6.18768
      vertex 0.235189 -10.4753 6.23767
      vertex 0.235189 4.52488 6.23767
    endloop
  endfacet
  facet normal 0 -2.22045e-16 -1
    outer loop
      vertex 0.235189 -10.4753 6.23767
      vertex 0.156793 4.50822 6.23767
      vertex 0.235189 4.52488 6.23767
    endloop
  endfacet
  facet normal 0 -2.22045e-16 -1
    outer loop
      vertex -0.156793 4.50822 6.23767
      vertex 0.156793 4.50822 6.23767
      vertex 0.235189 -10.4753 6.23767
    endloop
  endfacet
  facet normal 0 -2.22045e-16 -1
    outer loop
      vertex -0.156793 4.50822 6.23767
      vertex 0.235189 -10.4753 6.23767
      vertex -0.235189 4.52488 6.23767
    endloop
  endfacet
  facet normal 0 -2.22045e-16 -1
    outer loop
      vertex 0.235189 -10.4753 6.23767
      vertex -0.235189 -10.4753 6.23767
      vertex -0.235189 4.52488 6.23767
    endloop
  endfacet
  facet normal 0.207912 -2.17192e-16 -0.978148
    outer loop
      vertex -0.463525 4.57341 6.18914
      vertex -0.235189 4.52488 6.23767
      vertex -0.235189 -10.4753 6.23767
    endloop
  endfacet
  facet normal 0.207912 -2.17192e-16 -0.978148
    outer loop
      vertex -0.463525 4.57341 6.18914
      vertex -0.235189 -10.4753 6.23767
      vertex -0.695288 4.6766 6.13988
    endloop
  endfacet
  facet normal 0.207912 -2.17192e-16 -0.978148
    outer loop
      vertex -0.235189 -10.4753 6.23767
      vertex -0.470378 -10.4753 6.18768
      vertex -0.695288 4.6766 6.13988
    endloop
  endfacet
  facet normal 0.207912 -2.17192e-16 -0.978148
    outer loop
      vertex -0.470378 -10.4753 6.18768
      vertex -0.695288 -10.4275 6.13988
      vertex -0.695288 4.6766 6.13988
    endloop
  endfacet
  facet normal 0.406736 -2.02848e-16 -0.913546
    outer loop
      vertex -0.695288 -10.4275 6.13988
      vertex -0.75 4.70096 6.11552
      vertex -0.695288 4.6766 6.13988
    endloop
  endfacet
  facet normal 0.406736 -2.02848e-16 -0.913546
    outer loop
      vertex -1.0037 4.88528 6.00256
      vertex -0.75 4.70096 6.11552
      vertex -0.695288 -10.4275 6.13988
    endloop
  endfacet
  facet normal 0.406736 -2.02848e-16 -0.913546
    outer loop
      vertex -1.0037 4.88528 6.00256
      vertex -0.695288 -10.4275 6.13988
      vertex -1.125 5.02 5.94856
    endloop
  endfacet
  facet normal 0.406736 -2.02848e-16 -0.913546
    outer loop
      vertex -0.695288 -10.4275 6.13988
      vertex -1.125 -10.3362 5.94856
      vertex -1.125 5.02 5.94856
    endloop
  endfacet
endsolid OpenSCAD_Model
